<svg xmlns="http://www.w3.org/2000/svg" xmlns:xlink="http://www.w3.org/1999/xlink" width="155.669" height="40" viewBox="0 0 155.669 40"><defs><style>.a{fill:none;}.b{clip-path:url(#a);}</style><clipPath id="a"><rect class="a" width="155.669" height="40"/></clipPath></defs><path d="M29.785,31.52l.482,1.5h1.574l-1.277.918.478,1.484-1.257-.918-1.257.918.478-1.484-1.276-.918H29.3Zm-6.5-1.727.482,1.5h1.574l-1.276.918.478,1.484-1.257-.918L22.03,33.7l.477-1.484-1.276-.918,1.574,0Zm13,0,.481,1.5h1.575l-1.277.918.479,1.484-1.257-.918-1.257.918.478-1.484-1.276-.918,1.573,0Zm-17.77-4.772.482,1.5h1.573l-1.276.917.478,1.484-1.257-.919-1.257.919.478-1.484-1.277-.917,1.573,0Zm22.541,0,.483,1.5h1.572l-1.277.917.479,1.484-1.257-.919-1.257.919.479-1.484L39,26.525l1.573,0ZM16.769,18.5l.482,1.5h1.573l-1.276.918.478,1.484-1.257-.918-1.257.918.478-1.484-1.277-.918,1.574,0Zm26.015-.018.483,1.5H44.84l-1.277.918.478,1.484-1.258-.919-1.256.919.478-1.484-1.277-.918,1.574,0ZM18.516,12l.482,1.5h1.573l-1.276.918.478,1.484-1.257-.917-1.257.917.478-1.484-1.277-.918,1.573,0Zm22.541-.018.483,1.5h1.573l-1.277.916.479,1.484-1.258-.918-1.257.918.479-1.484L39,13.488l1.573,0ZM36.3,7.232l.481,1.5h1.576l-1.277.919.478,1.484-1.256-.919-1.259.919.477-1.484-1.275-.919,1.574,0Zm-13.027,0,.482,1.5h1.575l-1.277.918.478,1.484-1.257-.918-1.257.918L22.5,9.652l-1.276-.918,1.574,0Zm6.508-1.747.482,1.5h1.575L30.564,7.9l.479,1.484L29.785,8.47l-1.257.918L29.006,7.9,27.73,6.985l1.573,0ZM0,40.461H59.594V.731H0Z" transform="translate(0 -0.577)"/><path d="M318.711,9.6V.721H324.8v1.5H320.5v2.1h3.7v1.5h-3.7V9.6Z" transform="translate(-251.74 -0.569)"/><path d="M354.635.72h1.7V2.294h-1.7Zm0,2.446h1.7V9.595h-1.7Z" transform="translate(-280.115 -0.569)"/><g class="b"><path d="M376.831,18.242h-1.7V14.961a5.079,5.079,0,0,0-.109-1.347.945.945,0,0,0-.354-.475,1.013,1.013,0,0,0-.59-.169,1.364,1.364,0,0,0-.793.242,1.221,1.221,0,0,0-.481.642,5.546,5.546,0,0,0-.13,1.477v2.912h-1.7V11.813h1.58v.944a2.635,2.635,0,0,1,3.148-.887,1.728,1.728,0,0,1,.705.518,1.878,1.878,0,0,1,.333.714,5.3,5.3,0,0,1,.094,1.144Z" transform="translate(-293.018 -9.216)"/><path d="M406.655,13.774l-1.544-.279a2.4,2.4,0,0,1,.9-1.38,3.279,3.279,0,0,1,1.889-.448,4.074,4.074,0,0,1,1.7.269,1.692,1.692,0,0,1,.784.684,3.506,3.506,0,0,1,.227,1.523l-.018,1.986a6.9,6.9,0,0,0,.082,1.25,3.648,3.648,0,0,0,.306.863h-1.683q-.067-.169-.163-.5-.043-.151-.061-.2a3.065,3.065,0,0,1-.932.635,2.672,2.672,0,0,1-1.059.212,2.191,2.191,0,0,1-1.565-.539,1.791,1.791,0,0,1-.572-1.362,1.826,1.826,0,0,1,.26-.972,1.7,1.7,0,0,1,.729-.654,5.705,5.705,0,0,1,1.353-.4,9.273,9.273,0,0,0,1.653-.418v-.17a.882.882,0,0,0-.242-.7,1.453,1.453,0,0,0-.914-.209,1.218,1.218,0,0,0-.708.179,1.241,1.241,0,0,0-.412.627m2.276,1.38a10.611,10.611,0,0,1-1.035.26,3.115,3.115,0,0,0-.926.3.709.709,0,0,0-.333.6.834.834,0,0,0,.266.618.929.929,0,0,0,.678.26,1.472,1.472,0,0,0,.878-.3,1.065,1.065,0,0,0,.406-.563,3.362,3.362,0,0,0,.067-.829Z" transform="translate(-319.846 -9.215)"/><path d="M445.683,18.242h-1.7V14.961a5.081,5.081,0,0,0-.109-1.347.944.944,0,0,0-.354-.475,1.013,1.013,0,0,0-.59-.169,1.365,1.365,0,0,0-.793.242,1.222,1.222,0,0,0-.481.642,5.547,5.547,0,0,0-.13,1.477v2.912h-1.7V11.813h1.58v.944a2.635,2.635,0,0,1,3.148-.887,1.728,1.728,0,0,1,.705.518,1.878,1.878,0,0,1,.333.714,5.307,5.307,0,0,1,.094,1.144Z" transform="translate(-347.402 -9.216)"/><path d="M480.116,13.714l-1.677.3a1.218,1.218,0,0,0-.385-.757,1.162,1.162,0,0,0-.778-.254,1.271,1.271,0,0,0-1.014.439,2.248,2.248,0,0,0-.378,1.468,2.6,2.6,0,0,0,.384,1.616A1.262,1.262,0,0,0,477.3,17a1.145,1.145,0,0,0,.793-.275,1.653,1.653,0,0,0,.436-.947l1.671.285a2.964,2.964,0,0,1-1,1.737,3.091,3.091,0,0,1-1.979.587,2.943,2.943,0,0,1-2.249-.89,3.45,3.45,0,0,1-.838-2.464,3.458,3.458,0,0,1,.841-2.479,2.989,2.989,0,0,1,2.276-.887,3.106,3.106,0,0,1,1.868.505,2.8,2.8,0,0,1,1,1.541" transform="translate(-374.504 -9.216)"/><path d="M506.861,14.936a3.48,3.48,0,0,1,.418-1.641,2.87,2.87,0,0,1,1.184-1.211,3.513,3.513,0,0,1,1.71-.418,3.21,3.21,0,0,1,2.391.947,3.274,3.274,0,0,1,.932,2.394,3.312,3.312,0,0,1-.941,2.418,3.181,3.181,0,0,1-2.37.96,3.732,3.732,0,0,1-1.686-.4,2.743,2.743,0,0,1-1.22-1.171,3.905,3.905,0,0,1-.418-1.88m1.743.091a2.13,2.13,0,0,0,.454,1.465,1.484,1.484,0,0,0,2.237,0,2.16,2.16,0,0,0,.451-1.477,2.121,2.121,0,0,0-.451-1.453,1.484,1.484,0,0,0-2.237,0,2.13,2.13,0,0,0-.454,1.465" transform="translate(-400.353 -9.215)"/><path d="M543.445,18.788l-2.591-6.429h1.786l1.211,3.281.351,1.1q.139-.418.175-.551.085-.272.182-.545l1.223-3.281h1.749l-2.555,6.429Z" transform="translate(-427.203 -9.762)"/><path d="M577.173,4.558l-1.544-.278a2.4,2.4,0,0,1,.9-1.38,3.278,3.278,0,0,1,1.889-.448,4.069,4.069,0,0,1,1.695.269,1.69,1.69,0,0,1,.784.684,3.5,3.5,0,0,1,.227,1.522L581.1,6.913a6.885,6.885,0,0,0,.082,1.25,3.651,3.651,0,0,0,.306.863h-1.683q-.067-.17-.163-.5-.042-.151-.061-.2a3.066,3.066,0,0,1-.932.636,2.671,2.671,0,0,1-1.059.212,2.19,2.19,0,0,1-1.565-.539,1.79,1.79,0,0,1-.572-1.362,1.829,1.829,0,0,1,.26-.972,1.7,1.7,0,0,1,.73-.654,5.7,5.7,0,0,1,1.353-.4,9.251,9.251,0,0,0,1.653-.418V4.661a.881.881,0,0,0-.242-.7,1.452,1.452,0,0,0-.914-.209,1.216,1.216,0,0,0-.708.179,1.239,1.239,0,0,0-.412.626m2.276,1.38a10.6,10.6,0,0,1-1.035.26,3.122,3.122,0,0,0-.926.3.709.709,0,0,0-.333.6.834.834,0,0,0,.266.617.929.929,0,0,0,.678.26,1.473,1.473,0,0,0,.878-.3,1.065,1.065,0,0,0,.406-.563,3.361,3.361,0,0,0,.067-.829Zm-1.84-4.128L578.444,0h1.907l-1.665,1.81Z" transform="translate(-454.532)"/><path d="M616.2,18.242h-1.7V14.961a5.076,5.076,0,0,0-.109-1.347.944.944,0,0,0-.354-.475,1.013,1.013,0,0,0-.59-.169,1.364,1.364,0,0,0-.793.242,1.222,1.222,0,0,0-.481.642,5.546,5.546,0,0,0-.13,1.477v2.912h-1.7V11.813h1.58v.944a2.635,2.635,0,0,1,3.148-.887,1.728,1.728,0,0,1,.705.518,1.878,1.878,0,0,1,.333.714,5.305,5.305,0,0,1,.094,1.144Z" transform="translate(-482.089 -9.216)"/><path d="M644.566,14.936a3.48,3.48,0,0,1,.417-1.641,2.87,2.87,0,0,1,1.184-1.211,3.513,3.513,0,0,1,1.71-.418,3.21,3.21,0,0,1,2.391.947,3.274,3.274,0,0,1,.932,2.394,3.312,3.312,0,0,1-.941,2.418,3.181,3.181,0,0,1-2.37.96,3.731,3.731,0,0,1-1.686-.4,2.743,2.743,0,0,1-1.22-1.171,3.906,3.906,0,0,1-.417-1.88m1.743.091a2.13,2.13,0,0,0,.454,1.465,1.484,1.484,0,0,0,2.237,0,2.16,2.16,0,0,0,.451-1.477A2.121,2.121,0,0,0,649,13.562a1.484,1.484,0,0,0-2.237,0,2.13,2.13,0,0,0-.454,1.465" transform="translate(-509.122 -9.215)"/><path d="M318.655,80.4V71.521h6.58v1.5h-4.788v1.967H324.9v1.5h-4.455V78.9H325.4v1.5Z" transform="translate(-251.695 -56.492)"/><path d="M356.622,89.588l-2.591-6.429h1.786l1.211,3.281.351,1.1q.139-.417.175-.551.085-.272.182-.545l1.223-3.281h1.749l-2.555,6.429Z" transform="translate(-279.638 -65.685)"/><path d="M392.117,89.041h-1.7V82.612H392v.914a2.746,2.746,0,0,1,.73-.853,1.343,1.343,0,0,1,.736-.206,2.161,2.161,0,0,1,1.12.321l-.527,1.483a1.5,1.5,0,0,0-.8-.278.945.945,0,0,0-.605.2,1.346,1.346,0,0,0-.39.712,10.112,10.112,0,0,0-.142,2.155Z" transform="translate(-308.377 -65.138)"/><path d="M411.85,85.736a3.48,3.48,0,0,1,.418-1.641,2.87,2.87,0,0,1,1.184-1.211,3.513,3.513,0,0,1,1.71-.418,3.21,3.21,0,0,1,2.391.947,3.274,3.274,0,0,1,.932,2.394,3.312,3.312,0,0,1-.941,2.418,3.182,3.182,0,0,1-2.37.96,3.731,3.731,0,0,1-1.686-.4,2.743,2.743,0,0,1-1.22-1.171,3.905,3.905,0,0,1-.418-1.88m1.743.091a2.129,2.129,0,0,0,.454,1.465,1.484,1.484,0,0,0,2.237,0,2.16,2.16,0,0,0,.451-1.477,2.121,2.121,0,0,0-.451-1.453,1.484,1.484,0,0,0-2.237,0,2.13,2.13,0,0,0-.454,1.465" transform="translate(-325.307 -65.138)"/><path d="M449.531,82.612h1.586v.944a2.374,2.374,0,0,1,.835-.787,2.3,2.3,0,0,1,1.168-.3,2.45,2.45,0,0,1,1.9.878,3.552,3.552,0,0,1,.781,2.446,3.661,3.661,0,0,1-.787,2.5,2.452,2.452,0,0,1-1.907.893,2.172,2.172,0,0,1-.966-.212,3.258,3.258,0,0,1-.911-.727v3.239h-1.7Zm1.683,3.106a2.476,2.476,0,0,0,.43,1.6,1.314,1.314,0,0,0,1.047.518,1.229,1.229,0,0,0,.987-.475,2.45,2.45,0,0,0,.393-1.559,2.322,2.322,0,0,0-.406-1.5,1.254,1.254,0,0,0-1-.49,1.306,1.306,0,0,0-1.035.481,2.142,2.142,0,0,0-.412,1.426" transform="translate(-355.07 -65.138)"/><path d="M482.95,87.207l1.707-.26a1.252,1.252,0,0,0,.442.754,1.494,1.494,0,0,0,.932.257,1.684,1.684,0,0,0,.993-.242.54.54,0,0,0,.224-.454.448.448,0,0,0-.121-.321,1.362,1.362,0,0,0-.569-.224,9.168,9.168,0,0,1-2.609-.829,1.656,1.656,0,0,1-.763-1.447,1.783,1.783,0,0,1,.66-1.4,3.081,3.081,0,0,1,2.046-.569,3.569,3.569,0,0,1,1.961.43,2.2,2.2,0,0,1,.884,1.271l-1.6.3a.992.992,0,0,0-.39-.575,1.43,1.43,0,0,0-.82-.2,1.85,1.85,0,0,0-.963.188.4.4,0,0,0-.194.345.375.375,0,0,0,.169.309,6.383,6.383,0,0,0,1.589.478,4.731,4.731,0,0,1,1.9.757,1.573,1.573,0,0,1,.533,1.265,1.942,1.942,0,0,1-.739,1.519,3.269,3.269,0,0,1-2.185.636,3.586,3.586,0,0,1-2.079-.533,2.455,2.455,0,0,1-1-1.447" transform="translate(-381.466 -65.138)"/><path d="M518.327,80.4V71.521h1.7v4.71l1.991-2.264h2.095l-2.2,2.349,2.355,4.08h-1.834l-1.616-2.888-.793.829V80.4Z" transform="translate(-409.409 -56.492)"/><path d="M549.555,85.736a3.48,3.48,0,0,1,.418-1.641,2.87,2.87,0,0,1,1.184-1.211,3.512,3.512,0,0,1,1.71-.418,3.21,3.21,0,0,1,2.391.947,3.274,3.274,0,0,1,.932,2.394,3.312,3.312,0,0,1-.941,2.418,3.182,3.182,0,0,1-2.37.96,3.731,3.731,0,0,1-1.686-.4,2.743,2.743,0,0,1-1.22-1.171,3.906,3.906,0,0,1-.418-1.88m1.743.091a2.129,2.129,0,0,0,.454,1.465,1.484,1.484,0,0,0,2.237,0,2.159,2.159,0,0,0,.451-1.477,2.12,2.12,0,0,0-.451-1.453,1.484,1.484,0,0,0-2.237,0,2.13,2.13,0,0,0-.454,1.465" transform="translate(-434.076 -65.138)"/><path d="M591.563,89.588v-.963a2.475,2.475,0,0,1-.923.811,2.585,2.585,0,0,1-1.208.3,2.36,2.36,0,0,1-1.162-.285,1.679,1.679,0,0,1-.745-.8,3.567,3.567,0,0,1-.23-1.422V83.159H589v2.954a8.213,8.213,0,0,0,.094,1.662.906.906,0,0,0,.342.484,1.052,1.052,0,0,0,.63.178,1.338,1.338,0,0,0,.781-.239,1.219,1.219,0,0,0,.472-.593,6.888,6.888,0,0,0,.127-1.734V83.159h1.7v6.429Z" transform="translate(-463.885 -65.685)"/><path d="M643.995,89.588v-.963a2.474,2.474,0,0,1-.923.811,2.584,2.584,0,0,1-1.208.3,2.36,2.36,0,0,1-1.162-.285,1.678,1.678,0,0,1-.745-.8,3.566,3.566,0,0,1-.23-1.422V83.159h1.7v2.954a8.215,8.215,0,0,0,.094,1.662.907.907,0,0,0,.342.484,1.052,1.052,0,0,0,.63.178,1.338,1.338,0,0,0,.781-.239,1.219,1.219,0,0,0,.472-.593,6.887,6.887,0,0,0,.127-1.734V83.159h1.7v6.429Z" transform="translate(-505.3 -65.685)"/><path d="M681.741,89.041h-1.7V85.76a5.08,5.08,0,0,0-.109-1.347.946.946,0,0,0-.354-.475,1.014,1.014,0,0,0-.59-.169,1.366,1.366,0,0,0-.793.242,1.223,1.223,0,0,0-.481.642,5.546,5.546,0,0,0-.13,1.477v2.912h-1.7V82.612h1.58v.944a2.634,2.634,0,0,1,3.148-.887,1.723,1.723,0,0,1,.705.518,1.877,1.877,0,0,1,.333.714,5.31,5.31,0,0,1,.094,1.144Z" transform="translate(-533.856 -65.138)"/><path d="M711.977,71.52h1.7v1.574h-1.7Zm0,2.446h1.7v6.429h-1.7Z" transform="translate(-562.367 -56.491)"/><path d="M727.765,72.61l.835-1.81h1.907l-1.665,1.81Zm.127.787h1.7v6.429h-1.7Z" transform="translate(-574.838 -55.923)"/><path d="M318.665,160.9v-7.671h1.041l4.03,6.023v-6.023h.973V160.9h-1.041l-4.029-6.028V160.9Z" transform="translate(-251.703 -121.029)"/><path d="M357.6,166.583l.973.12a2.376,2.376,0,0,1-.853,1.324,2.89,2.89,0,0,1-3.524-.28,2.935,2.935,0,0,1-.714-2.106,3.071,3.071,0,0,1,.722-2.177,2.444,2.444,0,0,1,1.873-.774,2.376,2.376,0,0,1,1.821.759,3.014,3.014,0,0,1,.706,2.135c0,.056,0,.14-.005.251h-4.144a2.134,2.134,0,0,0,.518,1.4,1.542,1.542,0,0,0,1.162.487,1.441,1.441,0,0,0,.884-.272,1.807,1.807,0,0,0,.581-.869M354.5,165.06h3.1a1.883,1.883,0,0,0-.356-1.052,1.444,1.444,0,0,0-1.167-.544,1.5,1.5,0,0,0-1.091.434,1.72,1.72,0,0,0-.489,1.162" transform="translate(-279.201 -128.504)"/><path d="M380.347,168.845l2.03-2.888-1.878-2.669h1.177l.853,1.3q.24.372.387.623.23-.345.424-.612l.937-1.313H385.4l-1.921,2.616,2.067,2.941h-1.157l-1.141-1.727-.3-.466-1.46,2.193Z" transform="translate(-300.424 -128.976)"/><path d="M408.946,160.7l.136.832a3.5,3.5,0,0,1-.711.084,1.61,1.61,0,0,1-.8-.162.906.906,0,0,1-.4-.426,3.375,3.375,0,0,1-.115-1.112v-3.2h-.691v-.733h.691v-1.376l.937-.565v1.941h.947v.733H408v3.249a1.637,1.637,0,0,0,.05.518.391.391,0,0,0,.162.183.628.628,0,0,0,.322.068,3.072,3.072,0,0,0,.413-.037" transform="translate(-320.979 -121.677)"/><path d="M426.205,157.4v-.9l3.25-.005v2.847a5.735,5.735,0,0,1-1.544.9,4.58,4.58,0,0,1-1.633.3,4.358,4.358,0,0,1-2.054-.484,3.2,3.2,0,0,1-1.394-1.4,4.405,4.405,0,0,1-.471-2.046,4.744,4.744,0,0,1,.468-2.09,3.113,3.113,0,0,1,1.347-1.442,4.223,4.223,0,0,1,2.025-.471,4.009,4.009,0,0,1,1.5.27,2.493,2.493,0,0,1,1.054.751,3.33,3.33,0,0,1,.581,1.256l-.916.251a2.835,2.835,0,0,0-.429-.921,1.762,1.762,0,0,0-.733-.536,2.69,2.69,0,0,0-1.057-.2,3.114,3.114,0,0,0-1.2.212,2.248,2.248,0,0,0-.819.557,2.66,2.66,0,0,0-.484.759,4.014,4.014,0,0,0-.293,1.544,3.745,3.745,0,0,0,.353,1.716,2.259,2.259,0,0,0,1.028,1.026,3.181,3.181,0,0,0,1.434.335,3.4,3.4,0,0,0,1.287-.254,3.319,3.319,0,0,0,.952-.542V157.4Z" transform="translate(-333.608 -120.537)"/><path d="M465.3,166.583l.973.12a2.376,2.376,0,0,1-.853,1.324,2.89,2.89,0,0,1-3.524-.28,2.934,2.934,0,0,1-.714-2.106,3.071,3.071,0,0,1,.722-2.177,2.444,2.444,0,0,1,1.873-.774,2.376,2.376,0,0,1,1.821.759,3.014,3.014,0,0,1,.706,2.135c0,.056,0,.14-.005.251h-4.144a2.134,2.134,0,0,0,.518,1.4,1.542,1.542,0,0,0,1.162.487,1.441,1.441,0,0,0,.884-.272,1.807,1.807,0,0,0,.581-.869m-3.093-1.523h3.1a1.883,1.883,0,0,0-.356-1.052,1.444,1.444,0,0,0-1.167-.544,1.5,1.5,0,0,0-1.091.434,1.72,1.72,0,0,0-.489,1.162" transform="translate(-364.271 -128.504)"/><path d="M491.039,168.373v-5.557h.848v.79a2,2,0,0,1,1.768-.916,2.319,2.319,0,0,1,.924.181,1.455,1.455,0,0,1,.631.473,1.819,1.819,0,0,1,.293.7,5.4,5.4,0,0,1,.052.916v3.417h-.942v-3.38a2.543,2.543,0,0,0-.11-.861.906.906,0,0,0-.39-.455,1.24,1.24,0,0,0-.657-.17,1.527,1.527,0,0,0-1.039.382,1.885,1.885,0,0,0-.437,1.45v3.035Z" transform="translate(-387.856 -128.504)"/><path d="M522.026,166.583l.973.12a2.376,2.376,0,0,1-.853,1.324,2.89,2.89,0,0,1-3.524-.28,2.935,2.935,0,0,1-.714-2.106,3.071,3.071,0,0,1,.722-2.177,2.444,2.444,0,0,1,1.873-.774,2.376,2.376,0,0,1,1.821.759,3.014,3.014,0,0,1,.706,2.135q0,.084-.005.251h-4.144a2.134,2.134,0,0,0,.518,1.4,1.542,1.542,0,0,0,1.162.487,1.441,1.441,0,0,0,.884-.272,1.807,1.807,0,0,0,.581-.869m-3.093-1.523h3.1a1.882,1.882,0,0,0-.356-1.052,1.444,1.444,0,0,0-1.167-.544,1.5,1.5,0,0,0-1.091.434,1.721,1.721,0,0,0-.489,1.162" transform="translate(-409.079 -128.504)"/><path d="M547.716,168.373v-5.557h.847v.842a2.3,2.3,0,0,1,.6-.78,1.046,1.046,0,0,1,.6-.189,1.839,1.839,0,0,1,.968.3l-.325.874a1.346,1.346,0,0,0-.691-.2.9.9,0,0,0-.555.186,1.007,1.007,0,0,0-.35.515,3.662,3.662,0,0,0-.157,1.1v2.909Z" transform="translate(-432.623 -128.504)"/><path d="M567.177,167.687a3.512,3.512,0,0,1-1.007.628,2.91,2.91,0,0,1-1.039.183,2.02,2.02,0,0,1-1.408-.447,1.476,1.476,0,0,1-.492-1.143,1.548,1.548,0,0,1,.672-1.287,2.289,2.289,0,0,1,.677-.309,6.761,6.761,0,0,1,.837-.141,8.6,8.6,0,0,0,1.68-.324q.005-.194.005-.246a1.038,1.038,0,0,0-.267-.811,1.576,1.576,0,0,0-1.073-.319,1.664,1.664,0,0,0-.981.233,1.421,1.421,0,0,0-.468.824l-.921-.126a2.282,2.282,0,0,1,.413-.955,1.812,1.812,0,0,1,.832-.56,3.715,3.715,0,0,1,1.261-.2,3.34,3.34,0,0,1,1.157.167,1.527,1.527,0,0,1,.654.421,1.482,1.482,0,0,1,.293.641,5.324,5.324,0,0,1,.047.869v1.256a13.312,13.312,0,0,0,.06,1.662,2.1,2.1,0,0,0,.238.667h-.984a2,2,0,0,1-.188-.685m-.078-2.1a6.907,6.907,0,0,1-1.539.356,3.561,3.561,0,0,0-.821.189.821.821,0,0,0-.372.306.833.833,0,0,0,.154,1.075,1.227,1.227,0,0,0,.835.251,1.943,1.943,0,0,0,.968-.238,1.467,1.467,0,0,0,.623-.652,2.272,2.272,0,0,0,.152-.942Z" transform="translate(-444.878 -128.504)"/><path d="M593.223,160.7l.136.832a3.5,3.5,0,0,1-.712.084,1.61,1.61,0,0,1-.8-.162.907.907,0,0,1-.4-.426,3.375,3.375,0,0,1-.115-1.112v-3.2h-.691v-.733h.691v-1.376l.937-.565v1.941h.947v.733h-.947v3.249a1.637,1.637,0,0,0,.05.518.391.391,0,0,0,.162.183.628.628,0,0,0,.322.068,3.073,3.073,0,0,0,.413-.037" transform="translate(-466.534 -121.677)"/><path d="M607.308,153.227h.942v1.083h-.942Zm0,2.114h.942V160.9h-.942Z" transform="translate(-479.693 -121.029)"/><path d="M616.945,165.594a2.865,2.865,0,0,1,.858-2.287,2.585,2.585,0,0,1,1.748-.617,2.494,2.494,0,0,1,1.873.751,2.857,2.857,0,0,1,.727,2.075,3.677,3.677,0,0,1-.322,1.688,2.279,2.279,0,0,1-.937.955,2.728,2.728,0,0,1-1.342.34,2.5,2.5,0,0,1-1.887-.748,2.989,2.989,0,0,1-.719-2.156m.968,0a2.366,2.366,0,0,0,.466,1.6,1.551,1.551,0,0,0,2.339,0,2.425,2.425,0,0,0,.465-1.628,2.3,2.3,0,0,0-.468-1.562,1.553,1.553,0,0,0-2.336,0,2.356,2.356,0,0,0-.466,1.6" transform="translate(-487.305 -128.504)"/><path d="M646.976,168.373v-5.557h.848v.79a2,2,0,0,1,1.768-.916,2.319,2.319,0,0,1,.924.181,1.455,1.455,0,0,1,.631.473,1.82,1.82,0,0,1,.293.7,5.4,5.4,0,0,1,.052.916v3.417h-.942v-3.38a2.541,2.541,0,0,0-.11-.861.905.905,0,0,0-.39-.455,1.24,1.24,0,0,0-.657-.17,1.527,1.527,0,0,0-1.039.382,1.885,1.885,0,0,0-.437,1.45v3.035Z" transform="translate(-511.025 -128.504)"/><path d="M676.013,160.9v-7.671h5.547v.905h-4.531v2.35h4.244v.9h-4.244v2.611h4.709v.905Z" transform="translate(-533.961 -121.029)"/><path d="M715.023,153.227h1.015v4.432a5.245,5.245,0,0,1-.262,1.837,2.24,2.24,0,0,1-.945,1.107,3.345,3.345,0,0,1-1.792.426,3.683,3.683,0,0,1-1.763-.372,2.118,2.118,0,0,1-.978-1.075,5.12,5.12,0,0,1-.293-1.923v-4.432h1.015v4.427a4.311,4.311,0,0,0,.186,1.473,1.409,1.409,0,0,0,.638.73,2.215,2.215,0,0,0,1.107.256,2.115,2.115,0,0,0,1.6-.508,2.924,2.924,0,0,0,.476-1.952Z" transform="translate(-560.81 -121.029)"/></g></svg>