<svg xmlns="http://www.w3.org/2000/svg" xmlns:xlink="http://www.w3.org/1999/xlink" width="11.189" height="21.433" viewBox="0 0 11.189 21.433">
  <defs>
    <clipPath id="clip-path">
      <rect id="Rectangle_403" data-name="Rectangle 403" width="11.189" height="21.433" fill="#000"/>
    </clipPath>
  </defs>
  <g id="Group_353" data-name="Group 353" transform="translate(0 0)">
    <g id="Group_349" data-name="Group 349" transform="translate(0 0)" clip-path="url(#clip-path)">
      <path id="Path_121" data-name="Path 121" d="M8.923,3.615c.664-.024,1.326,0,1.993,0h.274V.157c-.355-.035-.726-.087-1.1-.1C9.412.022,8.729-.011,8.048,0A5.035,5.035,0,0,0,5.16.894,4.323,4.323,0,0,0,3.427,3.778,10,10,0,0,0,3.307,5.26c-.019.775,0,1.548,0,2.323v.293H0v3.86H3.285v9.7H7.3V11.75h3.274c.165-1.283.333-2.555.5-3.876-.262,0-.5,0-.737,0-.931,0-3.068,0-3.068,0S7.28,5.962,7.3,5.132C7.339,4,8.01,3.648,8.923,3.615" transform="translate(0 -0.002)" fill="#000" fill-rule="evenodd"/>
    </g>
  </g>
</svg>
