<svg xmlns="http://www.w3.org/2000/svg" width="498" height="68.597" viewBox="0 0 498 68.597"><defs><style>.a{fill:#161615;}</style></defs><g transform="translate(-690 -30.201)"><path class="a" d="M28.673,17.786a4.724,4.724,0,0,1,5-4.813,4.707,4.707,0,0,1,5,4.813,4.7,4.7,0,0,1-5,4.784,4.716,4.716,0,0,1-5-4.784" transform="translate(661.327 61.027)"/><path class="a" d="M28.673,17.786a4.724,4.724,0,0,1,5-4.813,4.707,4.707,0,0,1,5,4.813,4.7,4.7,0,0,1-5,4.784,4.716,4.716,0,0,1-5-4.784" transform="translate(1053.327 17.229)"/><path class="a" d="M28.673,17.786a4.724,4.724,0,0,1,5-4.813,4.707,4.707,0,0,1,5,4.813,4.7,4.7,0,0,1-5,4.784,4.716,4.716,0,0,1-5-4.784" transform="translate(1149.327 76.229)"/></g></svg>