<svg xmlns="http://www.w3.org/2000/svg" width="140" height="89.597" viewBox="0 0 140 89.597"><defs><style>.a{fill:#161615;}</style></defs><g transform="translate(-137 -25.403)"><path class="a" d="M28.673,17.786a4.724,4.724,0,0,1,5-4.813,4.707,4.707,0,0,1,5,4.813,4.7,4.7,0,0,1-5,4.784,4.716,4.716,0,0,1-5-4.784" transform="translate(191.327 92.43)"/><path class="a" d="M28.673,17.786a4.724,4.724,0,0,1,5-4.813,4.707,4.707,0,0,1,5,4.813,4.7,4.7,0,0,1-5,4.784,4.716,4.716,0,0,1-5-4.784" transform="translate(108.327 12.43)"/><path class="a" d="M28.673,17.786a4.724,4.724,0,0,1,5-4.813,4.707,4.707,0,0,1,5,4.813,4.7,4.7,0,0,1-5,4.784,4.716,4.716,0,0,1-5-4.784" transform="translate(238.327 45.027)"/></g></svg>