<svg xmlns="http://www.w3.org/2000/svg" xmlns:xlink="http://www.w3.org/1999/xlink" width="128" height="117.999" viewBox="0 0 128 117.999">
    <defs>
        <style>.a{fill:none;}.b{clip-path:url(#a);}.c{fill:#161615;}</style>
        <clipPath id="a"><rect class="a" width="128" height="117.999"/></clipPath>
    </defs>
    <g class="b">
        <path class="c" d="M0,5.873H7.786v6.942c1.382-4.766,4.277-7.736,9.038-7.736,4.689,0,7.761,2.97,8.555,8.118,1.382-5.2,4.585-8.118,9.269-8.118,5.533,0,8.81,4.1,8.81,10.989V32.559H35.673V18.114c0-4.2-1.613-6.4-5.019-6.4-3.431,0-5.044,2.2-5.044,6.4V32.559H17.849V18.114c0-4.2-1.613-6.4-5.044-6.4-3.406,0-5.019,2.2-5.019,6.4V32.559H0Z" transform="translate(0 7.521)"/>
        <path class="c" d="M20.738,13.4h7.786V40.081H20.738ZM19.892,4.56A4.476,4.476,0,0,1,24.631,0a4.46,4.46,0,0,1,4.736,4.56,4.453,4.453,0,0,1-4.736,4.533A4.468,4.468,0,0,1,19.892,4.56" transform="translate(29.461 -0.001)"/>
        <path class="c" d="M20.738,44.748h7.786V71.434H20.738Zm-.846-8.835a4.476,4.476,0,0,1,4.739-4.56,4.55,4.55,0,1,1,0,9.093,4.468,4.468,0,0,1-4.739-4.533" transform="translate(29.461 46.434)"/><path class="c" d="M20.239,18.7h7.786v8.579c1.767-7.528,6.4-9.475,9.654-9.091v8.066a11.173,11.173,0,0,0-2.56-.308c-3.841,0-7.093,2.176-7.093,7.351V45.39H20.239Z" transform="translate(29.975 26.875)"/>
        <path class="c" d="M29.519,26.368H37.3V53.054H29.519Zm-.846-8.835a4.476,4.476,0,0,1,4.739-4.56,4.46,4.46,0,0,1,4.736,4.56,4.453,4.453,0,0,1-4.736,4.533,4.468,4.468,0,0,1-4.739-4.533" transform="translate(42.466 19.213)"/><path class="c" d="M7.217,25.9H15V51.513L25.22,39.426h9.247L23.761,51.9,36.208,66.112H26.142L15,53.126V66.112H7.217Z" transform="translate(10.689 38.364)"/><path class="c" d="M79.864,54.887a3.493,3.493,0,1,1,3.315-3.493,3.246,3.246,0,0,1-3.315,3.493m0,1.729a5.219,5.219,0,1,0-5.334-5.223,5.119,5.119,0,0,0,5.334,5.223m-9.177-.265h1.945V46.459H70.687Zm.978-12.031a1.287,1.287,0,1,0-1.32-1.28,1.243,1.243,0,0,0,1.32,1.28M62.921,54.887A3.489,3.489,0,1,1,66.216,51.4a3.246,3.246,0,0,1-3.295,3.483m-.293,1.729a4.2,4.2,0,0,0,3.456-1.585v1.32H68.03V41.445H66.084v6.332a4.2,4.2,0,0,0-3.456-1.585,5.215,5.215,0,0,0,0,10.425m-12.125,0a3.529,3.529,0,0,0,3.114-1.434v1.169h1.945V46.457H53.617v5.478c0,1.928-.883,2.972-2.469,2.972s-2.469-1.045-2.469-2.972V46.457H46.732v5.925c0,2.64,1.407,4.235,3.771,4.235m-6.974-.134a10.554,10.554,0,0,0,1.6-.131V54.679a9.381,9.381,0,0,1-1.243.087c-1.035,0-1.861-.323-1.861-1.767V48.166H45.2V46.457H42.021V43.286H40.083v3.171h-2.25v1.709h2.25v5c0,2.63,1.491,3.312,3.446,3.312M33.1,56.607c2.032,0,3.769-1.092,3.769-2.972,0-1.814-1.2-2.573-3.077-3.047L32.8,50.34c-.968-.236-1.556-.605-1.556-1.337,0-.769.739-1.236,1.68-1.236a2.271,2.271,0,0,1,2.23,1.444l1.511-.873a3.952,3.952,0,0,0-3.712-2.156c-1.975,0-3.637,1.074-3.637,2.841,0,1.737,1.253,2.573,2.781,2.96l.96.238c1.29.332,1.861.722,1.861,1.491,0,.816-.779,1.32-1.824,1.32a2.862,2.862,0,0,1-2.724-1.843l-1.481.96A4.449,4.449,0,0,0,33.1,56.607" transform="translate(42.789 61.381)"/>
    </g>
</svg>