<svg xmlns="http://www.w3.org/2000/svg" xmlns:xlink="http://www.w3.org/1999/xlink" width="95.35" height="40" viewBox="0 0 95.35 40"><defs><style>.a{fill:none;}.b{clip-path:url(#a);}.c{fill:#161615;}</style><clipPath id="a"><rect class="a" width="95.35" height="40"/></clipPath></defs><g class="b"><path class="c" d="M15.353,51.488a.475.475,0,1,1,.535.408.4.4,0,0,1-.065.005.477.477,0,0,1-.47-.413m2.295.135a.475.475,0,1,1,.133.019.454.454,0,0,1-.133-.019m1.515-.786a.472.472,0,1,1,.234.063.475.475,0,0,1-.234-.063m-5.411-.1a.477.477,0,1,1,.3.1.469.469,0,0,1-.3-.1M35.945,50.2a.475.475,0,0,1,.093-.946h0a.475.475,0,0,1-.044.948.4.4,0,0,1-.048,0m-6.355-.881a.476.476,0,1,1,.527.417c-.019,0-.036,0-.055,0a.476.476,0,0,1-.472-.42m4.214.3a.474.474,0,1,1,.171.032.455.455,0,0,1-.171-.032M20.5,49.325a.476.476,0,1,1,.668.082.485.485,0,0,1-.293.1.474.474,0,0,1-.375-.183m11.138-.447a.475.475,0,1,1,.62.259.467.467,0,0,1-.181.036.473.473,0,0,1-.44-.295m5.571-.135a.476.476,0,1,1,.672-.053v0a.478.478,0,0,1-.672.052m1.657-1.014a.476.476,0,1,1,.481.472h0a.478.478,0,0,1-.478-.472m2.1-.053a.476.476,0,1,1,.62.265.487.487,0,0,1-.177.034.477.477,0,0,1-.444-.3m-29.945.063h0a.475.475,0,1,1,.649-.179.48.48,0,0,1-.415.241.473.473,0,0,1-.234-.063m15.354-.019a.473.473,0,1,1,.23.061.465.465,0,0,1-.23-.061m-5.773-.6h0a.476.476,0,1,1,.512.436.257.257,0,0,1-.038,0,.476.476,0,0,1-.474-.438m3.9.264a.476.476,0,1,1,.086.008.424.424,0,0,1-.086-.008m18.161-.873a.476.476,0,1,1,.662-.112.468.468,0,0,1-.386.2.476.476,0,0,1-.276-.088m-33.4-.1a.479.479,0,1,1,.327.129.469.469,0,0,1-.327-.129m34.8-1.355a.474.474,0,1,1,.405.225.477.477,0,0,1-.405-.225M44.5,43.01h0a.476.476,0,1,1,.945-.109v0a.476.476,0,0,1-.42.526c-.017,0-.036,0-.053,0a.475.475,0,0,1-.472-.422m-37.965.1h0a.475.475,0,1,1,.778-.546h0a.476.476,0,0,1-.118.662.477.477,0,0,1-.662-.116m-1.722-.7h0a.473.473,0,1,1,.226.059.468.468,0,0,1-.226-.059m40.825-.591a.475.475,0,0,1,.333-.584v0a.475.475,0,0,1,.251.917.492.492,0,0,1-.125.017.475.475,0,0,1-.459-.352m-42.492-1v0a.476.476,0,0,1,.8-.51h0a.476.476,0,1,1-.8.508m44-.266a.476.476,0,1,1,.649-.181h0a.471.471,0,0,1-.647.181m1.712-.736a.476.476,0,1,1,.649-.181h0a.471.471,0,0,1-.647.181m.571-1.712a.476.476,0,1,1,.649-.181h0a.471.471,0,0,1-.647.181M2.1,38.988h0a.477.477,0,1,1,.411.236.478.478,0,0,1-.411-.236m.451-1.71a.48.48,0,1,1,.211.048.487.487,0,0,1-.211-.048M47.964,37a.476.476,0,1,1,.573-.761h0a.476.476,0,1,1-.571.761M2.112,35.415a.478.478,0,1,1,.337.139.477.477,0,0,1-.337-.139m44.634-.3a.476.476,0,1,1,.632.234.486.486,0,0,1-.2.044.479.479,0,0,1-.434-.278m-1.541.08a.485.485,0,1,1,.067,0c-.021,0-.044,0-.067,0m-1.948-.563h0a.476.476,0,0,1,.026-.951h0a.476.476,0,0,1-.011.951Zm-2.194-.345a.475.475,0,1,1,.672.027.479.479,0,0,1-.323.126.474.474,0,0,1-.348-.152M.6,33.948a.476.476,0,1,1,.674.008A.478.478,0,0,1,.6,33.948M32.05,33.54a.475.475,0,1,1,.666.09.476.476,0,0,1-.666-.09m1.891-.651a.477.477,0,0,1-.069-.67h0a.477.477,0,1,1,.067.67M39.7,32.6h0a.475.475,0,1,1,.394.209A.475.475,0,0,1,39.7,32.6M.156,32.041a.475.475,0,1,1,.32.124.469.469,0,0,1-.32-.124m1.651.023a.474.474,0,0,1-.122-.662h0a.476.476,0,1,1,.392.746.466.466,0,0,1-.268-.084m33.4-.436h0a.475.475,0,1,1,.523.422.421.421,0,0,1-.051,0,.474.474,0,0,1-.472-.424m-4.129.065a.477.477,0,1,1,.383.192.477.477,0,0,1-.383-.192m7.693-.477a.475.475,0,1,1,.542.4.459.459,0,0,1-.072.006.476.476,0,0,1-.47-.4m-1.693-.234v0a.475.475,0,1,1,.674.012.47.47,0,0,1-.331.133.476.476,0,0,1-.342-.143M3.216,30.529a.476.476,0,1,1,.59.325.458.458,0,0,1-.131.019.479.479,0,0,1-.459-.345m26.548-.381h0a.473.473,0,1,1,.342.147.476.476,0,0,1-.342-.147m5.423-.453a.475.475,0,1,1,.521.424.431.431,0,0,1-.05,0,.474.474,0,0,1-.472-.426M7.166,29.52a.477.477,0,1,1,.381.189.476.476,0,0,1-.381-.189m22.8-.936a.475.475,0,1,1,.337.141.468.468,0,0,1-.337-.141M8.87,28.3a.476.476,0,1,1,.655.154.483.483,0,0,1-.251.07.475.475,0,0,1-.4-.225m18.167-.529a.476.476,0,1,1,.293.1.475.475,0,0,1-.293-.1M12.7,26.6a.476.476,0,1,1,.672.017.469.469,0,0,1-.327.129A.476.476,0,0,1,12.7,26.6m12.731.015a.477.477,0,1,1,.2.045.487.487,0,0,1-.2-.045m-11.256-1.26a.475.475,0,1,1,.548.39.379.379,0,0,1-.08.008.475.475,0,0,1-.468-.4m4.741-.084a.476.476,0,1,1,.634.223.465.465,0,0,1-.205.048.473.473,0,0,1-.428-.27m-1.412-.721a.475.475,0,1,1,.67.07.487.487,0,0,1-.3.107.472.472,0,0,1-.369-.177m-1.975-.325a.476.476,0,1,1,.578.345.5.5,0,0,1-.118.015.477.477,0,0,1-.46-.36m6.781.076h0a.478.478,0,1,1,.4.209.475.475,0,0,1-.4-.209m-1.564-.034a.476.476,0,1,1,.639-.205h0a.479.479,0,0,1-.424.259.47.47,0,0,1-.217-.053" transform="translate(0 -18.922)"/><path class="c" d="M27.812,61.809a2.466,2.466,0,0,1-1.451-4.46l12.17-8.841-12.17-8.843a2.466,2.466,0,0,1,2.9-3.989L44.174,46.513a2.465,2.465,0,0,1,0,3.989L29.26,61.337a2.459,2.459,0,0,1-1.448.471" transform="translate(-20.523 -28.506)"/><path class="c" d="M121.56,144.37a2.466,2.466,0,0,1-2.343-1.7l-3.427-10.545a2.465,2.465,0,0,1,4.689-1.523l3.427,10.545a2.47,2.47,0,0,1-2.345,3.227" transform="translate(-93.66 -104.37)"/><path class="c" d="M155.915,97.093H144.828a2.465,2.465,0,1,1,0-4.93h11.087a2.465,2.465,0,1,1,0,4.93" transform="translate(-115.276 -74.628)"/><path class="c" d="M118.133,15.476a2.5,2.5,0,0,1-.762-.12,2.465,2.465,0,0,1-1.584-3.107L119.214,1.7A2.465,2.465,0,0,1,123.9,3.227l-3.427,10.545a2.466,2.466,0,0,1-2.343,1.7" transform="translate(-93.659 0)"/><path class="c" d="M288.459,28.378V32.7h-2.006V24.987h1.913l3.174,4.342V24.987h2.006V32.7h-1.913Z" transform="translate(-231.951 -20.233)"/><path class="c" d="M331.53,33.424a1.919,1.919,0,0,1-1.53.682,1.6,1.6,0,0,1-1.757-1.623,1.644,1.644,0,0,1,1.84-1.613,2.192,2.192,0,0,1,1.3.362v-.207c0-.734-.4-.941-1.116-.941a6.6,6.6,0,0,0-1.272.176l-.021-1.468a7.972,7.972,0,0,1,1.716-.166c1.644,0,2.523.765,2.523,1.964v3.339H331.53Zm0-5.4h-1.478l.775-1.52h2.13Zm-.134,4.425a.6.6,0,0,0-.631-.61.618.618,0,0,0-.662.61.641.641,0,0,0,.662.662.616.616,0,0,0,.631-.662" transform="translate(-265.79 -21.464)"/><path class="c" d="M361.323,43.3h-1.84V38.134h1.747v1.158c.155-.382.713-1.21,1.5-1.21h.186V40.1a1.071,1.071,0,0,0-.331-.041c-.775,0-1.261.434-1.261.755Z" transform="translate(-291.086 -30.836)"/><path class="c" d="M386,39.926A3.1,3.1,0,1,1,382.91,37.1,2.9,2.9,0,0,1,386,39.926m-4.28,0a1.195,1.195,0,1,0,2.388,0,1.195,1.195,0,1,0-2.388,0" transform="translate(-307.553 -30.044)"/><path class="c" d="M419.425,30.427a2.272,2.272,0,0,1-1.913.941,2.512,2.512,0,0,1-2.419-2.709,2.582,2.582,0,0,1,2.419-2.791,2.3,2.3,0,0,1,1.789.827V23.139h1.84V31.2h-1.716Zm-1.272-2.977A1.139,1.139,0,0,0,417,28.618a1.152,1.152,0,0,0,1.158,1.168,1.168,1.168,0,1,0,0-2.336" transform="translate(-336.116 -18.736)"/><path class="c" d="M453.9,43h-1.84V37.826h1.737V38.5a2.18,2.18,0,0,1,1.706-.8,1.792,1.792,0,0,1,1.83,1.913V43H455.5V40.173c0-.61-.331-.848-.786-.848a.793.793,0,0,0-.817.755Z" transform="translate(-366.046 -30.529)"/><path class="c" d="M486.666,33.931h-1.82V28.762h1.82Zm-.145-5.9h-1.479l.776-1.52h2.13Z" transform="translate(-392.597 -21.464)"/><path class="c" d="M287.64,97.156v2.864H285.8V92.649h1.716v.765a2.278,2.278,0,0,1,1.913-.931,2.519,2.519,0,0,1,2.419,2.709,2.588,2.588,0,0,1-2.419,2.791,2.3,2.3,0,0,1-1.789-.827m1.137-.755a1.142,1.142,0,0,0,1.168-1.168,1.154,1.154,0,0,0-1.168-1.168,1.168,1.168,0,1,0,0,2.336" transform="translate(-231.422 -74.887)"/><rect class="c" width="1.819" height="8.064" transform="translate(61.218 14.867)"/><path class="c" d="M338.27,88.424a1.919,1.919,0,0,1-1.53.682,1.6,1.6,0,0,1-1.757-1.623,1.644,1.644,0,0,1,1.84-1.613,2.192,2.192,0,0,1,1.3.362v-.207c0-.734-.4-.941-1.116-.941a6.6,6.6,0,0,0-1.272.176l-.021-1.468a7.973,7.973,0,0,1,1.716-.166c1.644,0,2.523.765,2.523,1.964v3.339H338.27Zm0-5.4h-1.478l.775-1.52h2.13Zm-.134,4.425a.6.6,0,0,0-.631-.61.618.618,0,0,0-.662.61.641.641,0,0,0,.662.662.616.616,0,0,0,.631-.662" transform="translate(-271.248 -66)"/><path class="c" d="M368.063,97.995h-1.84V92.826h1.737V93.5a2.18,2.18,0,0,1,1.706-.8,1.792,1.792,0,0,1,1.83,1.912v3.381h-1.83V95.173c0-.61-.331-.848-.786-.848a.793.793,0,0,0-.817.755Z" transform="translate(-296.544 -75.064)"/><path class="c" d="M290.951,149.925a3.1,3.1,0,1,1-3.091-2.822,2.9,2.9,0,0,1,3.091,2.822m-4.28,0a1.195,1.195,0,1,0,2.388,0,1.195,1.195,0,1,0-2.388,0" transform="translate(-230.588 -119.115)"/><path class="c" d="M324.753,141.369a2.278,2.278,0,0,1-1.913-.93v.765h-1.716V133.14h1.84V136.7a2.3,2.3,0,0,1,1.789-.827,2.589,2.589,0,0,1,2.419,2.791,2.518,2.518,0,0,1-2.419,2.709m-.651-1.582a1.154,1.154,0,0,0,1.168-1.168,1.142,1.142,0,0,0-1.168-1.168,1.168,1.168,0,1,0,0,2.336" transform="translate(-260.026 -107.808)"/><path class="c" d="M358.8,153h-1.84v-5.169H358.7v.672a2.181,2.181,0,0,1,1.706-.8,1.792,1.792,0,0,1,1.83,1.912V153h-1.83v-2.823c0-.61-.331-.847-.786-.847a.793.793,0,0,0-.817.755Z" transform="translate(-289.046 -119.6)"/><path class="c" d="M394.533,149.925a3.1,3.1,0,1,1-3.091-2.822,2.9,2.9,0,0,1,3.091,2.822m-4.28,0a1.195,1.195,0,1,0,2.388,0,1.195,1.195,0,1,0-2.388,0" transform="translate(-314.462 -119.115)"/><path class="c" d="M425.108,153.522h-2.223l-2.006-5.169h2.047l1.086,3.287,1.168-3.287h1.913Z" transform="translate(-340.801 -120.127)"/><path class="c" d="M458.647,155.725h-1.9l.724-2.016-2.347-5.355H457.2l1.189,3.256,1.085-3.256h1.913Z" transform="translate(-368.528 -120.128)"/></g></svg>