<svg xmlns="http://www.w3.org/2000/svg" xmlns:xlink="http://www.w3.org/1999/xlink" width="129.965" height="40" viewBox="0 0 129.965 40"><defs><style>.a{fill:none;}.b{fill:#161615;}.c{clip-path:url(#a);}</style><clipPath id="a"><rect class="a" width="129.965" height="40"/></clipPath></defs><g transform="translate(0 0)"><path class="b" d="M22.166,4.307h2.611l1.933,6.164h.024l1.935-6.164h2.609v8.134h-1.56V5.728h-.024L27.5,12.441h-1.56L23.752,5.728l-.024.026v6.687H22.166Z" transform="translate(25.806 5.013)"/><rect class="b" width="1.632" height="8.134" transform="translate(59.561 9.321)"/><path class="b" d="M29.423,4.307h2l3.1,6.082h.022V4.307h1.562v8.134H34.118L31.007,6.359h-.019v6.082H29.423Z" transform="translate(34.256 5.013)"/><rect class="b" width="1.629" height="8.134" transform="translate(72.965 9.321)"/><g transform="translate(0 -0.001)"><g class="c"><path class="b" d="M40.07,5.872a4.216,4.216,0,0,0-1.654-.348,1.131,1.131,0,0,0-1.281,1.13c0,1.409,3.563.816,3.563,3.539,0,1.779-1.407,2.452-3.05,2.452a7.113,7.113,0,0,1-2.082-.312l.152-1.467a3.911,3.911,0,0,0,1.84.5c.615,0,1.444-.312,1.444-1.045,0-1.55-3.563-.909-3.563-3.6,0-1.816,1.409-2.48,2.838-2.48a6.1,6.1,0,0,1,1.946.292Z" transform="translate(41.263 4.94)"/><path class="b" d="M40.149,5.587H37.9V4.307h6.127V5.587H41.778v6.846h-1.63Z" transform="translate(44.13 5.017)"/><path class="b" d="M41.209,4.307h4.8V5.586H42.839v2h2.9V8.87h-2.9v2.283h3.195v1.279H41.209Z" transform="translate(47.983 5.016)"/><path class="b" d="M44.313,4.307h1.755c1.747,0,3.831-.058,3.831,2.2a1.858,1.858,0,0,1-1.675,1.885v.024c.439.035.7.476.861.84l1.3,3.177H48.573l-.978-2.539c-.234-.6-.442-.838-1.13-.838h-.524v3.376H44.313Zm1.628,3.47h.537c.8,0,1.721-.117,1.721-1.13,0-.978-.907-1.061-1.721-1.061h-.537Z" transform="translate(51.597 5.016)"/><path class="b" d="M52.245,5.872a4.225,4.225,0,0,0-1.654-.348,1.13,1.13,0,0,0-1.281,1.13c0,1.409,3.563.816,3.563,3.539,0,1.779-1.409,2.452-3.05,2.452a7.117,7.117,0,0,1-2.084-.312l.152-1.467a3.916,3.916,0,0,0,1.838.5c.619,0,1.446-.312,1.446-1.045,0-1.55-3.563-.909-3.563-3.6,0-1.816,1.407-2.48,2.84-2.48a6.09,6.09,0,0,1,1.944.292Z" transform="translate(55.438 4.94)"/><path class="b" d="M52.326,5.587H50.073V4.307h6.132V5.587H53.956v6.846h-1.63Z" transform="translate(58.305 5.017)"/><path class="b" d="M52.549,4.307h1.744l2.084,6.378H56.4l2.06-6.378h1.617l-2.736,8.125h-2Z" transform="translate(61.188 5.016)"/><path class="b" d="M60.349,4.243c2.55,0,3.98,1.725,3.98,4.177s-1.409,4.225-3.98,4.225c-2.606,0-3.98-1.734-3.98-4.225s1.4-4.177,3.98-4.177m0,7.123c1.664,0,2.283-1.478,2.283-2.946,0-1.431-.664-2.9-2.283-2.9s-2.281,1.467-2.281,2.9c0,1.467.617,2.946,2.281,2.946" transform="translate(65.635 4.942)"/><path class="b" d="M22.168,9.249H23.8v3.491L26.73,9.249h2l-3.34,3.829,3.478,4.3H26.741L23.823,13.6H23.8v3.77h-1.63Z" transform="translate(25.812 10.771)"/><path class="b" d="M25.729,9.249h1.63v4.69c0,1.385.442,2.292,1.688,2.292s1.684-.907,1.684-2.292V9.249h1.632v5.19c0,2.177-1.236,3.073-3.316,3.073s-3.318-.9-3.318-3.073Z" transform="translate(29.958 10.77)"/><path class="b" d="M29.864,9.249h1.63v6.844h3.06v1.281h-4.69Z" transform="translate(34.774 10.771)"/><path class="b" d="M33.873,10.529H31.624V9.25h6.13v1.279H35.5v6.844h-1.63Z" transform="translate(36.822 10.772)"/><path class="b" d="M34.908,9.249h1.63v4.69c0,1.385.439,2.292,1.684,2.292s1.69-.907,1.69-2.292V9.249h1.63v5.19c0,2.177-1.236,3.073-3.32,3.073s-3.314-.9-3.314-3.073Z" transform="translate(40.646 10.77)"/><path class="b" d="M39.009,9.249h1.757c1.747,0,3.829-.058,3.829,2.2a1.86,1.86,0,0,1-1.675,1.885v.024c.444.035.7.478.861.84l1.3,3.177H43.269l-.976-2.539c-.234-.6-.444-.838-1.132-.838h-.522v3.376h-1.63Zm1.63,3.47h.532c.805,0,1.725-.117,1.725-1.13,0-.978-.909-1.061-1.725-1.061h-.532Z" transform="translate(45.421 10.77)"/><path class="b" d="M44.753,14.161,41.783,9.25h1.911l1.924,3.409L47.573,9.25H49.3l-2.913,4.911v3.212H44.753Z" transform="translate(48.652 10.772)"/><path class="b" d="M37.587,10.467a20,20,0,0,0-37.5,7.668C.028,18.748,0,19.376,0,20a20,20,0,1,0,37.587-9.534m-.48,16.98A18.653,18.653,0,0,1,1.348,20c0-.582.028-1.169.078-1.742a18.655,18.655,0,1,1,35.68,9.188" transform="translate(0 0.001)"/><path class="b" d="M26.309,23.584a10.906,10.906,0,0,1-3.848,3.4l-2.112-4.039a6.3,6.3,0,0,1-2.952.723,6.387,6.387,0,0,1-6.381-6.378l.043-.719-1.141-.128a6.832,6.832,0,0,0-.056.9,7.321,7.321,0,0,0,5.993,7.207l-.24,3.541c-.351-.061-.693-.136-1.028-.227-.134-.037-.255-.087-.385-.126-.206-.065-.411-.126-.613-.2-.143-.054-.279-.121-.42-.18-.177-.078-.359-.149-.535-.238-.141-.069-.277-.149-.413-.225-.167-.091-.335-.177-.5-.277-.139-.084-.266-.18-.4-.268-.156-.106-.312-.206-.459-.318-.128-.1-.251-.2-.372-.307-.143-.117-.29-.232-.424-.357-.121-.108-.232-.227-.344-.342-.13-.13-.266-.258-.39-.394-.106-.121-.208-.249-.314-.377s-.2-.227-.288-.346l-.009,0-1.409.636a11.3,11.3,0,0,1-1.95-4.5,13.058,13.058,0,0,1-.229-2.483A12.511,12.511,0,0,1,13.085,5.973l.435,1.119A11.085,11.085,0,0,0,6.345,17.45,10.475,10.475,0,0,0,7.111,21.5l.225-.071,1.669-.53a9.25,9.25,0,0,1-.673-3.452,9.087,9.087,0,0,1,8.859-9.073c.074,0,.145-.006.221-.006a9.116,9.116,0,0,1,7.378,3.788l1.643-1.123,0,0,3.359-2.37a15.154,15.154,0,1,0,.056,17.384Z" transform="translate(2.618 2.608)"/></g></g></g></svg>