<svg xmlns="http://www.w3.org/2000/svg" xmlns:xlink="http://www.w3.org/1999/xlink" width="80.339" height="67.744" viewBox="0 0 80.339 67.744"><defs><clipPath id="a"><rect width="80.339" height="67.744" fill="none" stroke="#000" stroke-width="1"/></clipPath></defs><g clip-path="url(#a)"><path d="M69.282,23.122V67.155H4.849a4.35,4.35,0,1,1,0-8.7H8.712V3.629H4.9a4.4,4.4,0,0,0-4.4,4.4V56.994" transform="translate(0.011 0.079)" fill="none" stroke="#000" stroke-linecap="round" stroke-linejoin="round" stroke-width="1"/><line x2="48.09" transform="translate(9.157 11.123)" fill="none" stroke="#000" stroke-linecap="round" stroke-linejoin="round" stroke-width="1"/><path d="M13.365,59.013H53.572" transform="translate(0.289 1.276)" fill="none" stroke="#000" stroke-linecap="round" stroke-linejoin="round" stroke-width="1"/><path d="M55.973,59.013h5.112" transform="translate(1.21 1.276)" fill="none" stroke="#000" stroke-linecap="round" stroke-linejoin="round" stroke-width="1"/><path d="M17.949,45.95l.124,13.493H37.023V45.758l-9.538-6.62Z" transform="translate(0.388 0.846)" fill="none" stroke="#000" stroke-linecap="round" stroke-linejoin="round" stroke-width="1"/><rect width="6.668" height="9.42" transform="translate(24.54 50.868)" fill="none" stroke="#000" stroke-linecap="round" stroke-linejoin="round" stroke-width="1"/><path d="M70.844,1.918,41.071,32.17l-1.654,8.155,8.4-1.467,29.8-30.279a4.748,4.748,0,0,0-6.768-6.661Z" transform="translate(0.852 0.011)" fill="none" stroke="#000" stroke-linecap="round" stroke-linejoin="round" stroke-width="1"/><line x2="6.742" y2="6.687" transform="translate(41.923 32.181)" fill="none" stroke="#000" stroke-linecap="round" stroke-linejoin="round" stroke-width="1"/><line x2="6.195" y2="6.299" transform="translate(69.663 4.52)" fill="none" stroke="#000" stroke-linecap="round" stroke-linejoin="round" stroke-width="1"/><line x2="6.659" y2="6.771" transform="translate(66.686 6.975)" fill="none" stroke="#000" stroke-linecap="round" stroke-linejoin="round" stroke-width="1"/><line y2="10.174" transform="translate(14.666 17.646)" fill="none" stroke="#000" stroke-linecap="round" stroke-linejoin="round" stroke-width="1"/><line y2="5.556" transform="translate(18.474 17.646)" fill="none" stroke="#000" stroke-linecap="round" stroke-linejoin="round" stroke-width="1"/></g></svg>