<svg xmlns="http://www.w3.org/2000/svg" xmlns:xlink="http://www.w3.org/1999/xlink" width="90.99" height="56.713" viewBox="0 0 90.99 56.713"><defs><clipPath id="a"><rect width="90.99" height="56.713" fill="none" stroke="#000" stroke-width="1"/></clipPath></defs><g transform="translate(0 0)"><g transform="translate(0 0)" clip-path="url(#a)"><path d="M55.71,15.2c0,8.121-5.605,14.7-12.52,14.7S30.669,23.325,30.669,15.2,36.274.5,43.19.5,55.71,7.083,55.71,15.2Z" transform="translate(1.957 0.032)" fill="none" stroke="#000" stroke-linecap="round" stroke-linejoin="round" stroke-width="1"/><path d="M30.677,53.655a83.615,83.615,0,0,0,12.511.833c16.792,0,24.214-4.4,24.214-4.4.488-18.9-9.448-18.9-13.683-20.036s-3.9-3.516-3.9-3.516" transform="translate(1.957 1.693)" fill="none" stroke="#000" stroke-linecap="round" stroke-linejoin="round" stroke-width="1"/><path d="M37.989,26.539s.332,2.375-3.9,3.516S19.914,31.2,20.4,50.09a11.878,11.878,0,0,0,3.641,1.824" transform="translate(1.301 1.693)" fill="none" stroke="#000" stroke-linecap="round" stroke-linejoin="round" stroke-width="1"/><path d="M51.093,29.572a8.479,8.479,0,0,1-15.646-.088" transform="translate(2.262 1.881)" fill="none" stroke="#000" stroke-linecap="round" stroke-linejoin="round" stroke-width="1"/><path d="M31.166,12.3s10.7,2.866,15.748-6.108c.73,3.209,4.352,7.436,8.677,6.951" transform="translate(1.988 0.395)" fill="none" stroke="#000" stroke-linecap="round" stroke-linejoin="round" stroke-width="1"/><ellipse cx="8.635" cy="10.14" rx="8.635" ry="10.14" transform="translate(65.124 1.624)" fill="none" stroke="#000" stroke-linecap="round" stroke-linejoin="round" stroke-width="1"/><path d="M85.684,32.5c-.795-9.807-6.7-9.872-9.359-10.588-2.921-.786-2.691-2.424-2.691-2.424" transform="translate(4.698 1.243)" fill="none" stroke="#000" stroke-linecap="round" stroke-linejoin="round" stroke-width="1"/><path d="M63.537,37.513c1.76.169,3.8.272,6.168.272,11.582,0,16.7-3.033,16.7-3.033" transform="translate(4.054 2.217)" fill="none" stroke="#000" stroke-linecap="round" stroke-linejoin="round" stroke-width="1"/><path d="M66.248,19.484s.229,1.638-2.691,2.424c-2.527.68-8.242,1.721-9.137,8.766" transform="translate(3.472 1.243)" fill="none" stroke="#000" stroke-linecap="round" stroke-linejoin="round" stroke-width="1"/><ellipse cx="8.635" cy="10.14" rx="8.635" ry="10.14" transform="translate(8.076 1.624)" fill="none" stroke="#000" stroke-linecap="round" stroke-linejoin="round" stroke-width="1"/><path d="M31.878,30.949c-.733-7.07-6.616-8.35-9.181-9.041-2.921-.786-2.691-2.424-2.691-2.424" transform="translate(1.276 1.243)" fill="none" stroke="#000" stroke-linecap="round" stroke-linejoin="round" stroke-width="1"/><path d="M4.77,36.5a48.37,48.37,0,0,0,11.636,1.169,57.117,57.117,0,0,0,6.809-.387" transform="translate(0.304 2.329)" fill="none" stroke="#000" stroke-linecap="round" stroke-linejoin="round" stroke-width="1"/><path d="M12.64,19.484s.229,1.638-2.691,2.424c-1.318.355-3.435.55-5.333,1.852A8.725,8.725,0,0,0,1.266,28.7a22.474,22.474,0,0,0-.754,7.03" transform="translate(0.032 1.243)" fill="none" stroke="#000" stroke-linecap="round" stroke-linejoin="round" stroke-width="1"/><path d="M61.219,23.227V11.408s4.934,0,8.635-5.82c3.207,5.82,6.805,5.624,8.635,5.82l.531,11.819" transform="translate(3.906 0.357)" fill="none" stroke="#000" stroke-linecap="round" stroke-linejoin="round" stroke-width="1"/><path d="M10.6,3.674s2.222,8.333,14.012,6.5" transform="translate(0.676 0.235)" fill="none" stroke="#000" stroke-linecap="round" stroke-linejoin="round" stroke-width="1"/><path d="M13,7.271s-2.222,2.939-5.336,2.853" transform="translate(0.489 0.464)" fill="none" stroke="#000" stroke-linecap="round" stroke-linejoin="round" stroke-width="1"/></g></g></svg>