<svg xmlns="http://www.w3.org/2000/svg" xmlns:xlink="http://www.w3.org/1999/xlink" width="71.354" height="65.682" viewBox="0 0 71.354 65.682"><defs><clipPath id="a"><rect width="71.354" height="65.682" fill="none" stroke="#000" stroke-width="1"/></clipPath></defs><g clip-path="url(#a)"><path d="M70.782,21.085V50.19a6.672,6.672,0,0,1-6.671,6.672H7.172A6.671,6.671,0,0,1,.5,50.19V14.374A6.671,6.671,0,0,1,7.172,7.7h8.222" transform="translate(0.036 0.559)" fill="none" stroke="#000" stroke-linecap="round" stroke-linejoin="round" stroke-width="1"/><path d="M52.861,7.7h7.451a6.672,6.672,0,0,1,6.672,6.671" transform="translate(3.834 0.559)" fill="none" stroke="#000" stroke-linecap="round" stroke-linejoin="round" stroke-width="1"/><line x2="3.713" transform="translate(33.574 8.262)" fill="none" stroke="#000" stroke-linecap="round" stroke-linejoin="round" stroke-width="1"/><line x2="66.103" transform="translate(4.716 48.62)" fill="none" stroke="#000" stroke-linecap="round" stroke-linejoin="round" stroke-width="1"/><line x1="0.669" y2="7.754" transform="translate(28.973 57.391)" fill="none" stroke="#000" stroke-linecap="round" stroke-linejoin="round" stroke-width="1"/><line x1="0.669" y1="7.754" transform="translate(41.712 57.391)" fill="none" stroke="#000" stroke-linecap="round" stroke-linejoin="round" stroke-width="1"/><line x1="28.509" transform="translate(21.423 65.146)" fill="none" stroke="#000" stroke-linecap="round" stroke-linejoin="round" stroke-width="1"/><path d="M36.2,48.554V13.814a7.417,7.417,0,0,1,1.365-4.288L43.962.5l6.582,8.614a7.417,7.417,0,0,1,1.524,4.5V48.554" transform="translate(2.626 0.037)" fill="none" stroke="#000" stroke-linecap="round" stroke-linejoin="round" stroke-width="1"/><line x2="7.177" transform="translate(43.134 5.409)" fill="none" stroke="#000" stroke-linecap="round" stroke-linejoin="round" stroke-width="1"/><line x2="15.868" transform="translate(38.825 15.352)" fill="none" stroke="#000" stroke-linecap="round" stroke-linejoin="round" stroke-width="1"/><line y2="23.726" transform="translate(43.801 19.86)" fill="none" stroke="#000" stroke-linecap="round" stroke-linejoin="round" stroke-width="1"/><line y2="23.726" transform="translate(50.042 19.86)" fill="none" stroke="#000" stroke-linecap="round" stroke-linejoin="round" stroke-width="1"/><path d="M18.113,27.294s-6.823-2.7-5.973-9.186C13.35,8.885,22.179,9.414,20.608.5c4.007,1.051,20.942,17.305,4.914,26.794" transform="translate(0.875 0.037)" fill="none" stroke="#000" stroke-linecap="round" stroke-linejoin="round" stroke-width="1"/><path d="M16.435,46.778S12.956,35.688,18.7,25.52a10.266,10.266,0,0,1,6.577,0c2.006,5.01,3.89,14.337,1.891,21.259" transform="translate(1.116 1.812)" fill="none" stroke="#000" stroke-linecap="round" stroke-linejoin="round" stroke-width="1"/><path d="M19.989,11.019s-6.968,3.175-3.175,10.452" transform="translate(1.138 0.8)" fill="none" stroke="#000" stroke-linecap="round" stroke-linejoin="round" stroke-width="1"/><path d="M16.673,29.649a12.3,12.3,0,0,1,9.918,0" transform="translate(1.209 2.073)" fill="none" stroke="#000" stroke-linecap="round" stroke-linejoin="round" stroke-width="1"/><line x2="4.836" transform="translate(32.932 52.885)" fill="none" stroke="#000" stroke-linecap="round" stroke-linejoin="round" stroke-width="1"/></g></svg>