<svg xmlns="http://www.w3.org/2000/svg" xmlns:xlink="http://www.w3.org/1999/xlink" width="64.651" height="61.794" viewBox="0 0 64.651 61.794"><defs><clipPath id="a"><rect width="64.651" height="61.794" fill="none" stroke="#000" stroke-width="1"/></clipPath></defs><g transform="translate(0 0)"><g transform="translate(0 0)" clip-path="url(#a)"><path d="M41.915,49.7h5.139V22.819a4.85,4.85,0,1,0-5.341,0V45.156" transform="translate(2.654 0.936)" fill="none" stroke="#000" stroke-linecap="round" stroke-linejoin="round" stroke-width="1"/><path d="M51.172,42.544V37.622h2.31V33.956H46.592V46.209h6.891V42.544Z" transform="translate(3.128 2.281)" fill="none" stroke="#000" stroke-linecap="round" stroke-linejoin="round" stroke-width="1"/><path d="M51.595.5H38.741a10.635,10.635,0,1,0,0,21.27h2.046a4.767,4.767,0,0,1-.062-4.06H38.56a6.575,6.575,0,0,1,0-13.149H51.776a6.575,6.575,0,0,1,0,13.149h-2.2a4.767,4.767,0,0,1-.062,4.06h2.08a10.635,10.635,0,0,0,0-21.27Z" transform="translate(1.887 0.034)" fill="none" stroke="#000" stroke-linecap="round" stroke-linejoin="round" stroke-width="1"/><path d="M41.415,24.345H6.106A5.606,5.606,0,0,0,.5,29.951V54.019a5.606,5.606,0,0,0,5.606,5.606h35.31a5.606,5.606,0,0,0,5.606-5.606V52.085" transform="translate(0.034 1.635)" fill="none" stroke="#000" stroke-linecap="round" stroke-linejoin="round" stroke-width="1"/><path d="M10.032,24.478H36.21V22.364" transform="translate(0.674 1.502)" fill="none" stroke="#000" stroke-linecap="round" stroke-linejoin="round" stroke-width="1"/><path d="M28.021,5.448a12.629,12.629,0,0,0-4.9-.9A13.088,13.088,0,0,0,10.032,17.641v3.013" transform="translate(0.674 0.306)" fill="none" stroke="#000" stroke-linecap="round" stroke-linejoin="round" stroke-width="1"/><path d="M24.691,38.71a1.927,1.927,0,1,0-2.712,1.758v4.613a.784.784,0,0,0,1.569,0V40.468a1.926,1.926,0,0,0,1.143-1.758" transform="translate(1.399 2.47)"/></g></g></svg>