<svg xmlns="http://www.w3.org/2000/svg" xmlns:xlink="http://www.w3.org/1999/xlink" width="85.614" height="66.426" viewBox="0 0 85.614 66.426"><defs><clipPath id="a"><rect width="85.614" height="66.426" transform="translate(0 0)" fill="none" stroke="#000" stroke-width="1"/></clipPath></defs><g transform="translate(0 0)" clip-path="url(#a)"><path d="M53.862,25.769l.486-2.808a10.379,10.379,0,0,0,2.825-1.785l2.743.769A13.009,13.009,0,0,0,61.572,19.6L59.93,17.273a10.357,10.357,0,0,0,.739-3.259l2.485-1.4a12.232,12.232,0,0,0-.486-2.825l-2.809-.486a10.331,10.331,0,0,0-1.785-2.825l.769-2.743A12.967,12.967,0,0,0,56.5,2.082L54.172,3.723a10.328,10.328,0,0,0-3.26-.738L49.516.5a13.2,13.2,0,0,0-1.427.16,12.984,12.984,0,0,0-1.4.326l-.486,2.808A10.343,10.343,0,0,0,43.38,5.58l-2.743-.77a13.009,13.009,0,0,0-1.656,2.344l1.641,2.328a10.357,10.357,0,0,0-.739,3.259l-2.484,1.4a12.232,12.232,0,0,0,.486,2.825l2.808.486a10.34,10.34,0,0,0,1.785,2.825l-.769,2.743a12.974,12.974,0,0,0,2.344,1.656l2.328-1.641a10.328,10.328,0,0,0,3.259.738l1.4,2.485a13.17,13.17,0,0,0,1.427-.16A13,13,0,0,0,53.862,25.769Z" fill="none" stroke="#000" stroke-linecap="round" stroke-linejoin="round" stroke-width="1"/><path d="M54.852,12.59a4.644,4.644,0,1,1-1.3-2.5" fill="none" stroke="#000" stroke-linecap="round" stroke-linejoin="round" stroke-width="1"/><path d="M81.19,49.25l-1.422-3.295a13.015,13.015,0,0,0,1.748-3.828l3.422-1.079a16.339,16.339,0,0,0,.131-3.611l-3.334-1.324a13.046,13.046,0,0,0-1.466-3.945l1.657-3.184a16.53,16.53,0,0,0-1.152-1.394,16.309,16.309,0,0,0-1.306-1.249l-3.3,1.422a13.044,13.044,0,0,0-3.828-1.749l-1.078-3.421a16.288,16.288,0,0,0-3.612-.132L66.33,25.8a13,13,0,0,0-3.944,1.466L59.2,25.6a15.459,15.459,0,0,0-2.644,2.459l1.422,3.3a13.015,13.015,0,0,0-1.748,3.828L52.81,36.265a16.341,16.341,0,0,0-.131,3.611L56.013,41.2a13.046,13.046,0,0,0,1.466,3.945l-1.657,3.183a15.407,15.407,0,0,0,2.458,2.644l3.3-1.422A13.044,13.044,0,0,0,65.4,51.3l1.078,3.421a16.348,16.348,0,0,0,3.612.132l1.324-3.335a13,13,0,0,0,3.944-1.466l3.184,1.658A15.458,15.458,0,0,0,81.19,49.25Z" fill="none" stroke="#000" stroke-linecap="round" stroke-linejoin="round" stroke-width="1"/><path d="M64.892,34.375a5.84,5.84,0,1,1-1.411,6.546" fill="none" stroke="#000" stroke-linecap="round" stroke-linejoin="round" stroke-width="1"/><path d="M23.379,63.217l-1.891,2.71H17.581l-1.891-2.71V58.049h7.689Z" fill="none" stroke="#000" stroke-linecap="round" stroke-linejoin="round" stroke-width="1"/><path d="M14.447,54.781c.344,1.5-.028,3.268,1.244,3.268h7.688c1.272,0,.9-1.768,1.244-3.268A18.359,18.359,0,0,1,27.13,50.23c.176-.226.343-.46.5-.7l.064-.087h-.011a9.539,9.539,0,1,0-15.735.614c.267.4.666,1.013,1.068,1.69" fill="none" stroke="#000" stroke-linecap="round" stroke-linejoin="round" stroke-width="1"/><path d="M13.912,44.865a5.976,5.976,0,0,1,5.976-5.976" fill="none" stroke="#000" stroke-linecap="round" stroke-linejoin="round" stroke-width="1"/><line y1="5.265" x2="0.028" transform="translate(19.525 25.711)" fill="none" stroke="#000" stroke-linecap="round" stroke-linejoin="round" stroke-width="1"/><line x2="3.629" y2="3.814" transform="translate(28.887 54.581)" fill="none" stroke="#000" stroke-linecap="round" stroke-linejoin="round" stroke-width="1"/><line x2="3.63" y2="3.815" transform="translate(6.387 30.933)" fill="none" stroke="#000" stroke-linecap="round" stroke-linejoin="round" stroke-width="1"/><line y1="3.772" x2="3.675" transform="translate(29.003 31.089)" fill="none" stroke="#000" stroke-linecap="round" stroke-linejoin="round" stroke-width="1"/><line y1="3.659" x2="3.565" transform="translate(6.225 54.581)" fill="none" stroke="#000" stroke-linecap="round" stroke-linejoin="round" stroke-width="1"/><line y1="0.069" x2="5.265" transform="translate(33.139 44.417)" fill="none" stroke="#000" stroke-linecap="round" stroke-linejoin="round" stroke-width="1"/><line y1="0.069" x2="5.262" transform="translate(0.5 44.842)" fill="none" stroke="#000" stroke-linecap="round" stroke-linejoin="round" stroke-width="1"/><path d="M30.37,8.246C11.779,6.22,10.4,20.955,10.4,20.955" fill="none" stroke="#000" stroke-linecap="round" stroke-linejoin="round" stroke-width="1"/><path d="M27.723,10.442,30.84,8.136,27.944,5.8" fill="none" stroke="#000" stroke-linecap="round" stroke-linejoin="round" stroke-width="1"/></g></svg>