<?xml version="1.0" encoding="utf-8"?><svg xmlns="http://www.w3.org/2000/svg" xmlns:xlink="http://www.w3.org/1999/xlink"><symbol viewBox="0 0 17.571 20.213" id="arrow-up" xmlns="http://www.w3.org/2000/svg"><defs><style>.aa{fill:#fff}</style></defs><path class="aa" d="M0 8.786l1.564 1.527 6.048-6.08v15.98h2.352V4.234l6.08 6.048 1.528-1.528L8.787 0z"/></symbol><symbol viewBox="0 0 155.669 40" id="eu" xmlns="http://www.w3.org/2000/svg"><defs><clipPath id="ba"><path class="ba" d="M0 0h155.669v40H0z"/></clipPath><style>.ba{fill:none}.bb{clip-path:url(#ba)}</style></defs><path d="M29.785 30.943l.482 1.5h1.574l-1.277.918.478 1.484-1.257-.918-1.257.918.478-1.484-1.276-.918h1.57zm-6.5-1.727l.482 1.5h1.574l-1.276.918.478 1.484-1.257-.918-1.256.923.477-1.484-1.276-.918h1.574zm13 0l.481 1.5h1.575l-1.277.918.479 1.484-1.257-.918-1.257.918.478-1.484-1.276-.918h1.573zm-17.77-4.772l.482 1.5h1.573l-1.276.917.478 1.484-1.257-.919-1.257.919.478-1.484-1.277-.917h1.573zm22.541 0l.483 1.5h1.572l-1.277.917.479 1.484-1.257-.919-1.257.919.479-1.484L39 25.948h1.573zm-24.287-6.521l.482 1.5h1.573l-1.276.918.478 1.484-1.257-.918-1.257.918.478-1.484-1.277-.918h1.574zm26.015-.018l.483 1.5h1.573l-1.277.918.478 1.484-1.258-.919-1.256.919.478-1.484-1.277-.918h1.574zm-24.268-6.482l.482 1.5h1.573l-1.276.918.478 1.484-1.257-.917-1.257.917.478-1.484-1.277-.918h1.573zm22.541-.018l.483 1.5h1.573l-1.277.916.479 1.484-1.258-.918-1.257.918.479-1.484-1.279-.91h1.573zM36.3 6.655l.481 1.5h1.576l-1.277.919.478 1.484-1.256-.919-1.259.919.477-1.484-1.275-.919h1.574zm-13.027 0l.482 1.5h1.575l-1.277.918.478 1.484-1.257-.918-1.257.918.483-1.482-1.276-.918h1.574zm6.508-1.747l.482 1.5h1.575l-1.274.915.479 1.484-1.258-.914-1.257.918.478-1.488-1.276-.915h1.573zM0 39.884h59.594V.154H0zM66.971 9.031V.152h6.089v1.5h-4.3v2.1h3.7v1.5h-3.7v3.779zM74.52.151h1.7v1.574h-1.7zm0 2.446h1.7v6.429h-1.7z"/><g class="bb"><path d="M83.813 9.026h-1.7V5.745a5.079 5.079 0 00-.109-1.347.945.945 0 00-.354-.475 1.013 1.013 0 00-.59-.169 1.364 1.364 0 00-.793.242 1.221 1.221 0 00-.481.642 5.546 5.546 0 00-.13 1.477v2.912h-1.7v-6.43h1.58v.944a2.635 2.635 0 013.148-.887 1.728 1.728 0 01.705.518 1.878 1.878 0 01.333.714 5.3 5.3 0 01.094 1.144zM86.809 4.559l-1.544-.279a2.4 2.4 0 01.9-1.38 3.279 3.279 0 011.889-.448 4.074 4.074 0 011.7.269 1.692 1.692 0 01.784.684 3.506 3.506 0 01.227 1.523l-.018 1.986a6.9 6.9 0 00.082 1.25 3.648 3.648 0 00.306.863h-1.683q-.067-.169-.163-.5-.043-.151-.061-.2a3.065 3.065 0 01-.932.635 2.672 2.672 0 01-1.059.212 2.191 2.191 0 01-1.565-.539 1.791 1.791 0 01-.572-1.362 1.826 1.826 0 01.26-.972 1.7 1.7 0 01.729-.654 5.705 5.705 0 011.353-.4 9.273 9.273 0 001.653-.418v-.17a.882.882 0 00-.242-.7 1.453 1.453 0 00-.914-.209 1.218 1.218 0 00-.708.179 1.241 1.241 0 00-.412.627m2.276 1.38a10.611 10.611 0 01-1.035.26 3.115 3.115 0 00-.926.3.709.709 0 00-.333.6.834.834 0 00.266.618.929.929 0 00.678.26 1.472 1.472 0 00.878-.3 1.065 1.065 0 00.406-.563 3.362 3.362 0 00.067-.829zM98.281 9.026h-1.7V5.745a5.081 5.081 0 00-.109-1.347.944.944 0 00-.354-.475 1.013 1.013 0 00-.59-.169 1.365 1.365 0 00-.793.242 1.222 1.222 0 00-.481.642 5.547 5.547 0 00-.13 1.477v2.912h-1.7v-6.43h1.58v.944a2.635 2.635 0 013.148-.887 1.728 1.728 0 01.705.518 1.878 1.878 0 01.333.714 5.307 5.307 0 01.094 1.144zM105.612 4.498l-1.677.3a1.218 1.218 0 00-.385-.757 1.162 1.162 0 00-.778-.254 1.271 1.271 0 00-1.014.439 2.248 2.248 0 00-.378 1.468 2.6 2.6 0 00.384 1.616 1.262 1.262 0 001.032.474 1.145 1.145 0 00.793-.275 1.653 1.653 0 00.436-.947l1.671.285a2.964 2.964 0 01-1 1.737 3.091 3.091 0 01-1.979.587 2.943 2.943 0 01-2.249-.89 3.45 3.45 0 01-.838-2.464 3.458 3.458 0 01.841-2.479 2.989 2.989 0 012.276-.887 3.106 3.106 0 011.868.505 2.8 2.8 0 011 1.541M106.508 5.721a3.48 3.48 0 01.418-1.641 2.87 2.87 0 011.184-1.211 3.513 3.513 0 011.71-.418 3.21 3.21 0 012.391.947 3.274 3.274 0 01.932 2.394 3.312 3.312 0 01-.941 2.418 3.181 3.181 0 01-2.37.96 3.732 3.732 0 01-1.686-.4 2.743 2.743 0 01-1.22-1.171 3.905 3.905 0 01-.418-1.88m1.743.091a2.13 2.13 0 00.454 1.465 1.484 1.484 0 002.237 0 2.16 2.16 0 00.451-1.477 2.121 2.121 0 00-.451-1.453 1.484 1.484 0 00-2.237 0 2.13 2.13 0 00-.454 1.465M116.242 9.026l-2.591-6.429h1.786l1.211 3.281.351 1.1q.139-.418.175-.551.085-.272.182-.545l1.223-3.281h1.749l-2.555 6.429zM122.641 4.558l-1.544-.278a2.4 2.4 0 01.9-1.38 3.278 3.278 0 011.889-.448 4.069 4.069 0 011.695.269 1.69 1.69 0 01.784.684 3.5 3.5 0 01.227 1.522l-.024 1.986a6.885 6.885 0 00.082 1.25 3.651 3.651 0 00.306.863h-1.683q-.067-.17-.163-.5-.042-.151-.061-.2a3.066 3.066 0 01-.932.636 2.671 2.671 0 01-1.059.212 2.19 2.19 0 01-1.565-.539 1.79 1.79 0 01-.572-1.362 1.829 1.829 0 01.26-.972 1.7 1.7 0 01.73-.654 5.7 5.7 0 011.353-.4 9.251 9.251 0 001.653-.418v-.168a.881.881 0 00-.242-.7 1.452 1.452 0 00-.914-.209 1.216 1.216 0 00-.708.179 1.239 1.239 0 00-.412.626m2.276 1.38a10.6 10.6 0 01-1.035.26 3.122 3.122 0 00-.926.3.709.709 0 00-.333.6.834.834 0 00.266.617.929.929 0 00.678.26 1.473 1.473 0 00.878-.3 1.065 1.065 0 00.406-.563 3.361 3.361 0 00.067-.829zm-1.84-4.128L123.912 0h1.907l-1.665 1.81zM134.111 9.026h-1.7V5.745a5.076 5.076 0 00-.109-1.347.944.944 0 00-.354-.475 1.013 1.013 0 00-.59-.169 1.364 1.364 0 00-.793.242 1.222 1.222 0 00-.481.642 5.546 5.546 0 00-.13 1.477v2.912h-1.7v-6.43h1.58v.944a2.635 2.635 0 013.148-.887 1.728 1.728 0 01.705.518 1.878 1.878 0 01.333.714 5.305 5.305 0 01.094 1.144zM135.444 5.721a3.48 3.48 0 01.417-1.641 2.87 2.87 0 011.184-1.211 3.513 3.513 0 011.71-.418 3.21 3.21 0 012.391.947 3.274 3.274 0 01.932 2.394 3.312 3.312 0 01-.941 2.418 3.181 3.181 0 01-2.37.96 3.731 3.731 0 01-1.686-.4 2.743 2.743 0 01-1.22-1.171 3.906 3.906 0 01-.417-1.88m1.743.091a2.13 2.13 0 00.454 1.465 1.484 1.484 0 002.237 0 2.16 2.16 0 00.451-1.477 2.121 2.121 0 00-.451-1.451 1.484 1.484 0 00-2.237 0 2.13 2.13 0 00-.454 1.465M66.96 23.908v-8.879h6.58v1.5h-4.788v1.967h4.453v1.5H68.75v2.412h4.955v1.5zM76.984 23.903l-2.591-6.429h1.786l1.211 3.281.351 1.1q.139-.417.175-.551.085-.272.182-.545l1.223-3.281h1.749l-2.555 6.429zM83.74 23.903h-1.7v-6.429h1.583v.914a2.746 2.746 0 01.73-.853 1.343 1.343 0 01.736-.206 2.161 2.161 0 011.12.321l-.527 1.483a1.5 1.5 0 00-.8-.278.945.945 0 00-.605.2 1.346 1.346 0 00-.39.712 10.112 10.112 0 00-.142 2.155zM86.543 20.598a3.48 3.48 0 01.418-1.641 2.87 2.87 0 011.184-1.211 3.513 3.513 0 011.71-.418 3.21 3.21 0 012.391.947 3.274 3.274 0 01.932 2.394 3.312 3.312 0 01-.941 2.418 3.182 3.182 0 01-2.37.96 3.731 3.731 0 01-1.686-.4 2.743 2.743 0 01-1.22-1.171 3.905 3.905 0 01-.418-1.88m1.743.091a2.129 2.129 0 00.454 1.465 1.484 1.484 0 002.237 0 2.16 2.16 0 00.451-1.477 2.121 2.121 0 00-.451-1.453 1.484 1.484 0 00-2.237 0 2.13 2.13 0 00-.454 1.465M94.461 17.474h1.586v.944a2.374 2.374 0 01.835-.787 2.3 2.3 0 011.168-.3 2.45 2.45 0 011.9.878 3.552 3.552 0 01.781 2.446 3.661 3.661 0 01-.787 2.5 2.452 2.452 0 01-1.907.893 2.172 2.172 0 01-.966-.212 3.258 3.258 0 01-.911-.727v3.239h-1.7zm1.683 3.106a2.476 2.476 0 00.43 1.6 1.314 1.314 0 001.047.518 1.229 1.229 0 00.987-.475 2.45 2.45 0 00.393-1.559 2.322 2.322 0 00-.406-1.5 1.254 1.254 0 00-1-.49 1.306 1.306 0 00-1.035.481 2.142 2.142 0 00-.412 1.426M101.484 22.069l1.707-.26a1.252 1.252 0 00.442.754 1.494 1.494 0 00.932.257 1.684 1.684 0 00.993-.242.54.54 0 00.224-.454.448.448 0 00-.121-.321 1.362 1.362 0 00-.569-.224 9.168 9.168 0 01-2.609-.829 1.656 1.656 0 01-.763-1.447 1.783 1.783 0 01.66-1.4 3.081 3.081 0 012.046-.569 3.569 3.569 0 011.961.43 2.2 2.2 0 01.884 1.271l-1.6.3a.992.992 0 00-.39-.575 1.43 1.43 0 00-.82-.2 1.85 1.85 0 00-.963.188.4.4 0 00-.194.345.375.375 0 00.169.309 6.383 6.383 0 001.589.478 4.731 4.731 0 011.9.757 1.573 1.573 0 01.533 1.265 1.942 1.942 0 01-.739 1.519 3.269 3.269 0 01-2.185.636 3.586 3.586 0 01-2.079-.533 2.455 2.455 0 01-1-1.447M108.918 23.908v-8.879h1.7v4.71l1.991-2.264h2.095l-2.2 2.349 2.355 4.08h-1.834l-1.616-2.888-.793.829v2.063zM115.479 20.598a3.48 3.48 0 01.418-1.641 2.87 2.87 0 011.184-1.211 3.512 3.512 0 011.71-.418 3.21 3.21 0 012.391.947 3.274 3.274 0 01.932 2.394 3.312 3.312 0 01-.941 2.418 3.182 3.182 0 01-2.37.96 3.731 3.731 0 01-1.686-.4 2.743 2.743 0 01-1.22-1.171 3.906 3.906 0 01-.418-1.88m1.743.091a2.129 2.129 0 00.454 1.465 1.484 1.484 0 002.237 0 2.159 2.159 0 00.451-1.477 2.12 2.12 0 00-.451-1.453 1.484 1.484 0 00-2.237 0 2.13 2.13 0 00-.454 1.465M127.678 23.903v-.963a2.475 2.475 0 01-.923.811 2.585 2.585 0 01-1.208.3 2.36 2.36 0 01-1.162-.285 1.679 1.679 0 01-.745-.8 3.567 3.567 0 01-.23-1.422v-4.07h1.705v2.954a8.213 8.213 0 00.094 1.662.906.906 0 00.342.484 1.052 1.052 0 00.63.178 1.338 1.338 0 00.781-.239 1.219 1.219 0 00.472-.593 6.888 6.888 0 00.127-1.734v-2.712h1.7v6.429zM138.695 23.903v-.963a2.474 2.474 0 01-.923.811 2.584 2.584 0 01-1.208.3 2.36 2.36 0 01-1.162-.285 1.678 1.678 0 01-.745-.8 3.566 3.566 0 01-.23-1.422v-4.07h1.7v2.954a8.215 8.215 0 00.094 1.662.907.907 0 00.342.484 1.052 1.052 0 00.63.178 1.338 1.338 0 00.781-.239 1.219 1.219 0 00.472-.593 6.887 6.887 0 00.127-1.734v-2.712h1.7v6.429zM147.885 23.903h-1.7v-3.281a5.08 5.08 0 00-.109-1.347.946.946 0 00-.354-.475 1.014 1.014 0 00-.59-.169 1.366 1.366 0 00-.793.242 1.223 1.223 0 00-.481.642 5.546 5.546 0 00-.13 1.477v2.912h-1.7v-6.43h1.58v.944a2.634 2.634 0 013.148-.887 1.723 1.723 0 01.705.518 1.877 1.877 0 01.333.714 5.31 5.31 0 01.094 1.144zM149.61 15.029h1.7v1.574h-1.7zm0 2.446h1.7v6.429h-1.7zM152.927 16.687l.835-1.81h1.907l-1.665 1.81zm.127.787h1.7v6.429h-1.7zM66.962 39.871V32.2h1.041l4.03 6.023V32.2h.973v7.671h-1.041l-4.029-6.028v6.028zM78.399 38.079l.973.12a2.376 2.376 0 01-.853 1.324 2.89 2.89 0 01-3.524-.28 2.935 2.935 0 01-.714-2.106 3.071 3.071 0 01.722-2.177 2.444 2.444 0 011.873-.774 2.376 2.376 0 011.821.759 3.014 3.014 0 01.706 2.135c0 .056 0 .14-.005.251h-4.144a2.134 2.134 0 00.518 1.4 1.542 1.542 0 001.162.487 1.441 1.441 0 00.884-.272 1.807 1.807 0 00.581-.869m-3.1-1.521h3.1a1.883 1.883 0 00-.356-1.052 1.444 1.444 0 00-1.167-.544 1.5 1.5 0 00-1.091.434 1.72 1.72 0 00-.489 1.162M79.923 39.869l2.03-2.888-1.878-2.669h1.177l.853 1.3q.24.372.387.623.23-.345.424-.612l.937-1.313h1.123l-1.921 2.616 2.067 2.941h-1.157l-1.141-1.727-.3-.466-1.46 2.193zM87.967 39.023l.136.832a3.5 3.5 0 01-.711.084 1.61 1.61 0 01-.8-.162.906.906 0 01-.4-.426 3.375 3.375 0 01-.115-1.112v-3.2h-.691v-.733h.691V32.93l.937-.565v1.941h.947v.733h-.94v3.249a1.637 1.637 0 00.05.518.391.391 0 00.162.183.628.628 0 00.322.068 3.072 3.072 0 00.413-.037M92.597 36.863v-.9l3.25-.005v2.847a5.735 5.735 0 01-1.544.9 4.58 4.58 0 01-1.633.3 4.358 4.358 0 01-2.054-.484 3.2 3.2 0 01-1.394-1.4 4.405 4.405 0 01-.471-2.046 4.744 4.744 0 01.468-2.09 3.113 3.113 0 011.347-1.442 4.223 4.223 0 012.025-.471 4.009 4.009 0 011.5.27 2.493 2.493 0 011.054.751 3.33 3.33 0 01.581 1.256l-.916.251a2.835 2.835 0 00-.429-.921 1.762 1.762 0 00-.733-.536 2.69 2.69 0 00-1.057-.2 3.114 3.114 0 00-1.2.212 2.248 2.248 0 00-.819.557 2.66 2.66 0 00-.484.759 4.014 4.014 0 00-.293 1.544 3.745 3.745 0 00.353 1.716 2.259 2.259 0 001.028 1.026 3.181 3.181 0 001.434.335 3.4 3.4 0 001.287-.254 3.319 3.319 0 00.952-.542v-1.433zM101.029 38.079l.973.12a2.376 2.376 0 01-.853 1.324 2.89 2.89 0 01-3.524-.28 2.934 2.934 0 01-.714-2.106 3.071 3.071 0 01.722-2.177 2.444 2.444 0 011.873-.774 2.376 2.376 0 011.821.759 3.014 3.014 0 01.706 2.135c0 .056 0 .14-.005.251h-4.144a2.134 2.134 0 00.518 1.4 1.542 1.542 0 001.162.487 1.441 1.441 0 00.884-.272 1.807 1.807 0 00.581-.869m-3.093-1.523h3.1a1.883 1.883 0 00-.356-1.052 1.444 1.444 0 00-1.167-.544 1.5 1.5 0 00-1.091.434 1.72 1.72 0 00-.489 1.162M103.183 39.869v-5.557h.848v.79a2 2 0 011.768-.916 2.319 2.319 0 01.924.181 1.455 1.455 0 01.631.473 1.819 1.819 0 01.293.7 5.4 5.4 0 01.052.916v3.417h-.942v-3.38a2.543 2.543 0 00-.11-.861.906.906 0 00-.39-.455 1.24 1.24 0 00-.657-.17 1.527 1.527 0 00-1.039.382 1.885 1.885 0 00-.437 1.45v3.035zM112.947 38.079l.973.12a2.376 2.376 0 01-.853 1.324 2.89 2.89 0 01-3.524-.28 2.935 2.935 0 01-.714-2.106 3.071 3.071 0 01.722-2.177 2.444 2.444 0 011.873-.774 2.376 2.376 0 011.821.759 3.014 3.014 0 01.706 2.135q0 .084-.005.251h-4.144a2.134 2.134 0 00.518 1.4 1.542 1.542 0 001.162.487 1.441 1.441 0 00.884-.272 1.807 1.807 0 00.581-.869m-3.093-1.523h3.1a1.882 1.882 0 00-.356-1.052 1.444 1.444 0 00-1.167-.544 1.5 1.5 0 00-1.091.434 1.721 1.721 0 00-.489 1.162M115.093 39.869v-5.557h.847v.842a2.3 2.3 0 01.6-.78 1.046 1.046 0 01.6-.189 1.839 1.839 0 01.968.3l-.325.874a1.346 1.346 0 00-.691-.2.9.9 0 00-.555.186 1.007 1.007 0 00-.35.515 3.662 3.662 0 00-.157 1.1v2.909zM122.299 39.183a3.512 3.512 0 01-1.007.628 2.91 2.91 0 01-1.039.183 2.02 2.02 0 01-1.408-.447 1.476 1.476 0 01-.492-1.143 1.548 1.548 0 01.672-1.287 2.289 2.289 0 01.677-.309 6.761 6.761 0 01.837-.141 8.6 8.6 0 001.68-.324q.005-.194.005-.246a1.038 1.038 0 00-.267-.811 1.576 1.576 0 00-1.073-.319 1.664 1.664 0 00-.981.233 1.421 1.421 0 00-.468.824l-.921-.126a2.282 2.282 0 01.413-.955 1.812 1.812 0 01.832-.56 3.715 3.715 0 011.261-.2 3.34 3.34 0 011.157.167 1.527 1.527 0 01.654.421 1.482 1.482 0 01.293.641 5.324 5.324 0 01.047.869v1.256a13.312 13.312 0 00.06 1.662 2.1 2.1 0 00.238.667h-.984a2 2 0 01-.188-.685m-.078-2.1a6.907 6.907 0 01-1.539.356 3.561 3.561 0 00-.821.189.821.821 0 00-.372.306.833.833 0 00.154 1.075 1.227 1.227 0 00.835.251 1.943 1.943 0 00.968-.238 1.467 1.467 0 00.623-.652 2.272 2.272 0 00.152-.942zM126.689 39.023l.136.832a3.5 3.5 0 01-.712.084 1.61 1.61 0 01-.8-.162.907.907 0 01-.4-.426 3.375 3.375 0 01-.115-1.112v-3.2h-.691v-.733h.691V32.93l.937-.565v1.941h.947v.733h-.947v3.249a1.637 1.637 0 00.05.518.391.391 0 00.162.183.628.628 0 00.322.068 3.073 3.073 0 00.413-.037M127.615 32.198h.942v1.083h-.942zm0 2.114h.942v5.559h-.942zM129.64 37.09a2.865 2.865 0 01.858-2.287 2.585 2.585 0 011.748-.617 2.494 2.494 0 011.873.751 2.857 2.857 0 01.727 2.075 3.677 3.677 0 01-.322 1.688 2.279 2.279 0 01-.937.955 2.728 2.728 0 01-1.342.34 2.5 2.5 0 01-1.887-.748 2.989 2.989 0 01-.719-2.156m.968 0a2.366 2.366 0 00.466 1.6 1.551 1.551 0 002.339 0 2.425 2.425 0 00.465-1.628 2.3 2.3 0 00-.468-1.562 1.553 1.553 0 00-2.336 0 2.356 2.356 0 00-.466 1.6M135.951 39.869v-5.557h.848v.79a2 2 0 011.768-.916 2.319 2.319 0 01.924.181 1.455 1.455 0 01.631.473 1.82 1.82 0 01.293.7 5.4 5.4 0 01.052.916v3.417h-.942v-3.38a2.541 2.541 0 00-.11-.861.905.905 0 00-.39-.455 1.24 1.24 0 00-.657-.17 1.527 1.527 0 00-1.039.382 1.885 1.885 0 00-.437 1.45v3.035zM142.052 39.871V32.2h5.547v.905h-4.531v2.35h4.244v.9h-4.244v2.611h4.709v.905zM154.213 32.198h1.015v4.432a5.245 5.245 0 01-.262 1.837 2.24 2.24 0 01-.945 1.107 3.345 3.345 0 01-1.792.426 3.683 3.683 0 01-1.763-.372 2.118 2.118 0 01-.978-1.075 5.12 5.12 0 01-.293-1.923v-4.432h1.015v4.427a4.311 4.311 0 00.186 1.473 1.409 1.409 0 00.638.73 2.215 2.215 0 001.107.256 2.115 2.115 0 001.6-.508 2.924 2.924 0 00.476-1.952z"/></g></symbol><symbol viewBox="0 0 11.189 21.433" id="facebook" xmlns="http://www.w3.org/2000/svg"><defs><clipPath id="ca"><path data-name="Rectangle 403" d="M0 0h11.189v21.433H0z"/></clipPath></defs><g data-name="Group 353"><g data-name="Group 349" clip-path="url(#ca)"><path data-name="Path 121" d="M8.923 3.613c.664-.024 1.326 0 1.993 0h.274V.155c-.355-.035-.726-.087-1.1-.1a30.205 30.205 0 00-2.042-.057A5.035 5.035 0 005.16.892a4.323 4.323 0 00-1.733 2.884 10 10 0 00-.12 1.482c-.019.775 0 1.548 0 2.323v.293H0v3.86h3.285v9.7H7.3v-9.686h3.274c.165-1.283.333-2.555.5-3.876H7.269S7.28 5.96 7.3 5.13c.039-1.132.71-1.484 1.623-1.517" fill-rule="evenodd"/></g></g></symbol><symbol viewBox="0 0 498 68.597" id="footer-dots" xmlns="http://www.w3.org/2000/svg"><defs><style>.da{fill:#161615}</style></defs><path class="da" d="M0 48.612a4.724 4.724 0 015-4.813 4.707 4.707 0 015 4.813 4.7 4.7 0 01-5 4.784 4.716 4.716 0 01-5-4.784M392 4.814a4.724 4.724 0 015-4.813 4.707 4.707 0 015 4.813 4.7 4.7 0 01-5 4.784 4.716 4.716 0 01-5-4.784M488 63.814a4.724 4.724 0 015-4.813 4.707 4.707 0 015 4.813 4.7 4.7 0 01-5 4.784 4.716 4.716 0 01-5-4.784"/></symbol><symbol viewBox="0 0 140 89.597" id="footer-dots-sm" xmlns="http://www.w3.org/2000/svg"><defs><style>.ea{fill:#161615}</style></defs><path class="ea" d="M83 84.813A4.724 4.724 0 0188 80a4.707 4.707 0 015 4.813 4.7 4.7 0 01-5 4.784 4.716 4.716 0 01-5-4.784M0 4.813A4.724 4.724 0 015 0a4.707 4.707 0 015 4.813 4.7 4.7 0 01-5 4.784 4.716 4.716 0 01-5-4.784M130 37.41a4.724 4.724 0 015-4.813 4.707 4.707 0 015 4.813 4.7 4.7 0 01-5 4.784 4.716 4.716 0 01-5-4.784"/></symbol><symbol viewBox="0 0 21.486 21.433" id="instagram" xmlns="http://www.w3.org/2000/svg"><defs><clipPath id="fa"><path data-name="Rectangle 402" d="M0 0h21.486v21.433H0z"/></clipPath></defs><g data-name="Group 351"><g data-name="Group 347" clip-path="url(#fa)"><path data-name="Path 120" d="M6.219 0A6.226 6.226 0 000 6.22v8.994a6.226 6.226 0 006.219 6.219h9.048a6.225 6.225 0 006.219-6.219V6.221A6.226 6.226 0 0015.267 0zm0 1.842h9.048a4.349 4.349 0 014.375 4.323v9.05a4.347 4.347 0 01-4.318 4.376H6.216a4.345 4.345 0 01-4.376-4.314V6.221a4.347 4.347 0 014.315-4.379h.064M16.51 3.685a1.288 1.288 0 101.29 1.288 1.288 1.288 0 00-1.29-1.288M10.743 5.2a5.519 5.519 0 105.52 5.518 5.519 5.519 0 00-5.52-5.518zm0 1.842a3.663 3.663 0 11-.026 0h.026z"/></g></g></symbol><symbol viewBox="0 0 128 117.999" id="logo" xmlns="http://www.w3.org/2000/svg"><defs><clipPath id="ga"><path class="ga" d="M0 0h128v117.999H0z"/></clipPath><style>.ga{fill:none}.gb{clip-path:url(#ga)}.gc{fill:#161615}</style></defs><g class="gb"><path class="gc" d="M0 13.394h7.786v6.942c1.382-4.766 4.277-7.736 9.038-7.736 4.689 0 7.761 2.97 8.555 8.118 1.382-5.2 4.585-8.118 9.269-8.118 5.533 0 8.81 4.1 8.81 10.989V40.08h-7.785V25.635c0-4.2-1.613-6.4-5.019-6.4-3.431 0-5.044 2.2-5.044 6.4V40.08h-7.761V25.635c0-4.2-1.613-6.4-5.044-6.4-3.406 0-5.019 2.2-5.019 6.4V40.08H0zM50.199 13.399h7.786V40.08h-7.786zm-.846-8.84a4.476 4.476 0 014.739-4.56 4.46 4.46 0 014.736 4.56 4.453 4.453 0 01-4.736 4.533 4.468 4.468 0 01-4.739-4.533M50.199 91.182h7.786v26.686h-7.786zm-.846-8.835a4.476 4.476 0 014.739-4.56 4.55 4.55 0 110 9.093 4.468 4.468 0 01-4.739-4.533M50.214 45.575H58v8.579c1.767-7.528 6.4-9.475 9.654-9.091v8.066a11.173 11.173 0 00-2.56-.308c-3.841 0-7.093 2.176-7.093 7.351v12.093h-7.787zM71.985 45.581h7.781v26.686h-7.781zm-.846-8.835a4.476 4.476 0 014.739-4.56 4.46 4.46 0 014.736 4.56 4.453 4.453 0 01-4.736 4.533 4.468 4.468 0 01-4.739-4.533M17.906 64.264h7.783v25.613l10.22-12.087h9.247L34.45 90.264l12.447 14.212H36.831L25.689 91.49v12.986h-7.783zM122.653 116.268a3.493 3.493 0 113.315-3.493 3.246 3.246 0 01-3.315 3.493m0 1.729a5.219 5.219 0 10-5.334-5.223 5.119 5.119 0 005.334 5.223m-9.177-.265h1.945v-9.892h-1.945zm.978-12.031a1.287 1.287 0 10-1.32-1.28 1.243 1.243 0 001.32 1.28m-8.744 10.567a3.489 3.489 0 113.295-3.487 3.246 3.246 0 01-3.295 3.483m-.293 1.729a4.2 4.2 0 003.456-1.585v1.32h1.946v-14.902h-1.946v6.332a4.2 4.2 0 00-3.456-1.585 5.215 5.215 0 000 10.425m-12.125 0a3.529 3.529 0 003.114-1.434v1.169h1.945v-9.895h-1.945v5.478c0 1.928-.883 2.972-2.469 2.972s-2.469-1.045-2.469-2.972v-5.478h-1.947v5.925c0 2.64 1.407 4.235 3.771 4.235m-6.974-.134a10.554 10.554 0 001.6-.131v-1.673a9.381 9.381 0 01-1.243.087c-1.035 0-1.861-.323-1.861-1.767v-4.833h3.175v-1.709H84.81v-3.171h-1.938v3.171h-2.25v1.709h2.25v5c0 2.63 1.491 3.312 3.446 3.312m-10.429.129c2.032 0 3.769-1.092 3.769-2.972 0-1.814-1.2-2.573-3.077-3.047l-.992-.248c-.968-.236-1.556-.605-1.556-1.337 0-.769.739-1.236 1.68-1.236a2.271 2.271 0 012.23 1.444l1.511-.873a3.952 3.952 0 00-3.712-2.156c-1.975 0-3.637 1.074-3.637 2.841 0 1.737 1.253 2.573 2.781 2.96l.96.238c1.29.332 1.861.722 1.861 1.491 0 .816-.779 1.32-1.824 1.32a2.862 2.862 0 01-2.724-1.843l-1.481.96a4.449 4.449 0 004.211 2.458"/></g></symbol><symbol viewBox="0 0 129.965 40" id="ministerstvok" xmlns="http://www.w3.org/2000/svg"><defs><clipPath id="ha"><path class="ha" d="M0 0h129.965v40H0z"/></clipPath><style>.ha{fill:none}.hb{fill:#161615}.hc{clip-path:url(#ha)}</style></defs><path class="hb" d="M47.972 9.32h2.611l1.933 6.164h.024l1.935-6.164h2.609v8.134h-1.56v-6.713H55.5l-2.194 6.713h-1.56l-2.188-6.713-.024.026v6.687h-1.562zM59.561 9.321h1.632v8.134h-1.632zM63.679 9.32h2l3.1 6.082h.022V9.32h1.562v8.134h-1.989l-3.111-6.082h-.019v6.082h-1.565zM72.965 9.321h1.629v8.134h-1.629z"/><g class="hc"><path class="hb" d="M81.333 10.811a4.216 4.216 0 00-1.654-.348 1.131 1.131 0 00-1.281 1.13c0 1.409 3.563.816 3.563 3.539 0 1.779-1.407 2.452-3.05 2.452a7.113 7.113 0 01-2.082-.312l.152-1.467a3.911 3.911 0 001.84.5c.615 0 1.444-.312 1.444-1.045 0-1.55-3.563-.909-3.563-3.6 0-1.816 1.409-2.48 2.838-2.48a6.1 6.1 0 011.946.292zM84.279 10.603H82.03v-1.28h6.127v1.28h-2.249v6.846h-1.63zM89.192 9.322h4.8v1.279h-3.17v2h2.9v1.284h-2.9v2.283h3.195v1.279h-4.825zM95.91 9.322h1.755c1.747 0 3.831-.058 3.831 2.2a1.858 1.858 0 01-1.675 1.885v.024c.439.035.7.476.861.84l1.3 3.177h-1.812l-.978-2.539c-.234-.6-.442-.838-1.13-.838h-.524v3.376H95.91zm1.628 3.47h.537c.8 0 1.721-.117 1.721-1.13 0-.978-.907-1.061-1.721-1.061h-.537zM107.683 10.811a4.225 4.225 0 00-1.654-.348 1.13 1.13 0 00-1.281 1.13c0 1.409 3.563.816 3.563 3.539 0 1.779-1.409 2.452-3.05 2.452a7.117 7.117 0 01-2.084-.312l.152-1.467a3.916 3.916 0 001.838.5c.619 0 1.446-.312 1.446-1.045 0-1.55-3.563-.909-3.563-3.6 0-1.816 1.407-2.48 2.84-2.48a6.09 6.09 0 011.944.292zM110.631 10.603h-2.253v-1.28h6.132v1.28h-2.249v6.846h-1.63z"/><path class="hb" d="M113.737 9.322h1.744l2.084 6.378h.023l2.06-6.378h1.617l-2.736 8.125h-2zM125.984 9.184c2.55 0 3.98 1.725 3.98 4.177s-1.409 4.225-3.98 4.225c-2.606 0-3.98-1.734-3.98-4.225s1.4-4.177 3.98-4.177m0 7.123c1.664 0 2.283-1.478 2.283-2.946 0-1.431-.664-2.9-2.283-2.9s-2.281 1.467-2.281 2.9c0 1.467.617 2.946 2.281 2.946M47.98 20.019h1.632v3.491l2.93-3.491h2l-3.34 3.829 3.478 4.3h-2.127l-2.918-3.778h-.023v3.77h-1.63zM55.687 20.018h1.63v4.69c0 1.385.442 2.292 1.688 2.292s1.684-.907 1.684-2.292v-4.69h1.632v5.19c0 2.177-1.236 3.073-3.316 3.073s-3.318-.9-3.318-3.073zM64.638 20.019h1.63v6.844h3.06v1.281h-4.69zM70.695 21.3h-2.249v-1.279h6.13V21.3h-2.254v6.844h-1.63zM75.554 20.018h1.63v4.69c0 1.385.439 2.292 1.684 2.292s1.69-.907 1.69-2.292v-4.69h1.63v5.19c0 2.177-1.236 3.073-3.32 3.073s-3.314-.9-3.314-3.073zM84.43 20.018h1.757c1.747 0 3.829-.058 3.829 2.2a1.86 1.86 0 01-1.675 1.885v.024c.444.035.7.478.861.84l1.3 3.177H88.69l-.976-2.539c-.234-.6-.444-.838-1.132-.838h-.522v3.376h-1.63zm1.63 3.47h.532c.805 0 1.725-.117 1.725-1.13 0-.978-.909-1.061-1.725-1.061h-.532zM93.405 24.932l-2.97-4.911h1.911l1.924 3.409 1.955-3.409h1.727l-2.913 4.911v3.212h-1.634zM37.587 10.467a20 20 0 00-37.5 7.668A19.556 19.556 0 000 20a20 20 0 1037.587-9.534m-.48 16.98A18.653 18.653 0 011.348 20c0-.582.028-1.169.078-1.742a18.655 18.655 0 1135.68 9.188"/><path class="hb" d="M28.927 26.191a10.906 10.906 0 01-3.848 3.4l-2.112-4.039a6.3 6.3 0 01-2.952.723 6.387 6.387 0 01-6.381-6.378l.043-.719-1.141-.128a6.832 6.832 0 00-.056.9 7.321 7.321 0 005.993 7.207l-.24 3.541a11.288 11.288 0 01-1.028-.227c-.134-.037-.255-.087-.385-.126-.206-.065-.411-.126-.613-.2-.143-.054-.279-.121-.42-.18-.177-.078-.359-.149-.535-.238-.141-.069-.277-.149-.413-.225-.167-.091-.335-.177-.5-.277-.139-.084-.266-.18-.4-.268-.156-.106-.312-.206-.459-.318a7.87 7.87 0 01-.372-.307c-.143-.117-.29-.232-.424-.357-.121-.108-.232-.227-.344-.342-.13-.13-.266-.258-.39-.394-.106-.121-.208-.249-.314-.377s-.2-.227-.288-.346h-.009l-1.409.636a11.3 11.3 0 01-1.95-4.5 13.058 13.058 0 01-.229-2.483A12.511 12.511 0 0115.703 8.58l.435 1.119a11.085 11.085 0 00-7.175 10.358 10.475 10.475 0 00.766 4.05l.225-.071 1.669-.53a9.25 9.25 0 01-.673-3.452 9.087 9.087 0 018.859-9.073c.074 0 .145-.006.221-.006a9.116 9.116 0 017.378 3.788l1.643-1.123 3.359-2.37a15.154 15.154 0 10.056 17.384z"/></g></symbol><symbol viewBox="0 0 95.35 40" id="npo" xmlns="http://www.w3.org/2000/svg"><defs><clipPath id="ia"><path class="ia" d="M0 0h95.35v40H0z"/></clipPath><style>.ia{fill:none}.ib{clip-path:url(#ia)}.ic{fill:#161615}</style></defs><g class="ib"><path class="ic" d="M15.353 32.566a.475.475 0 11.535.408.4.4 0 01-.065.005.477.477 0 01-.47-.413m2.295.135a.475.475 0 11.133.019.454.454 0 01-.133-.019m1.515-.786a.472.472 0 11.234.063.475.475 0 01-.234-.063m-5.411-.1a.477.477 0 11.3.1.469.469 0 01-.3-.1m22.193-.537a.475.475 0 01.093-.946.475.475 0 01-.044.948.4.4 0 01-.048 0m-6.355-.881a.476.476 0 11.527.417h-.055a.476.476 0 01-.472-.42m4.214.3a.474.474 0 11.171.032.455.455 0 01-.171-.032M20.5 30.403a.476.476 0 11.668.082.485.485 0 01-.293.1.474.474 0 01-.375-.183m11.138-.447a.475.475 0 11.62.259.467.467 0 01-.181.036.473.473 0 01-.44-.295m5.571-.135a.476.476 0 11.672-.053.478.478 0 01-.672.052m1.657-1.014a.476.476 0 11.481.472.478.478 0 01-.478-.472m2.1-.053a.476.476 0 11.62.265.487.487 0 01-.177.034.477.477 0 01-.444-.3m-29.945.063a.475.475 0 11.649-.179.48.48 0 01-.415.241.473.473 0 01-.234-.063m15.354-.019a.473.473 0 11.23.061.465.465 0 01-.23-.061m-5.773-.6a.476.476 0 11.512.436.257.257 0 01-.038 0 .476.476 0 01-.474-.438m3.9.264a.476.476 0 11.086.008.424.424 0 01-.086-.008m18.161-.873a.476.476 0 11.662-.112.468.468 0 01-.386.2.476.476 0 01-.276-.088m-33.4-.1a.479.479 0 11.327.129.469.469 0 01-.327-.129m34.8-1.355a.474.474 0 11.405.225.477.477 0 01-.405-.225m.436-2.04a.476.476 0 11.945-.109.476.476 0 01-.42.526h-.053a.475.475 0 01-.472-.422m-37.965.1a.475.475 0 11.778-.546.476.476 0 01-.118.662.477.477 0 01-.662-.116m-1.722-.7a.473.473 0 11.226.059.468.468 0 01-.226-.059m40.825-.591a.475.475 0 01.333-.584.475.475 0 01.251.917.492.492 0 01-.125.017.475.475 0 01-.459-.352m-42.492-1a.476.476 0 01.8-.51.476.476 0 11-.8.508m44-.266a.476.476 0 11.649-.181.471.471 0 01-.647.181m1.712-.736a.476.476 0 11.649-.181.471.471 0 01-.647.181m.571-1.712a.476.476 0 11.649-.181.471.471 0 01-.647.181M2.1 20.066a.477.477 0 11.411.236.478.478 0 01-.411-.236m.451-1.71a.48.48 0 11.211.048.487.487 0 01-.211-.048m45.413-.278a.476.476 0 11.573-.761.476.476 0 11-.571.761M2.112 16.493a.478.478 0 11.337.139.477.477 0 01-.337-.139m44.634-.3a.476.476 0 11.632.234.486.486 0 01-.2.044.479.479 0 01-.434-.278m-1.541.08a.485.485 0 11.067 0h-.067m-1.948-.563a.476.476 0 01.026-.951.476.476 0 01-.011.951zm-2.194-.345a.475.475 0 11.672.027.479.479 0 01-.323.126.474.474 0 01-.348-.152M.6 15.026a.476.476 0 11.674.008.478.478 0 01-.674-.008m31.45-.408a.475.475 0 11.666.09.476.476 0 01-.666-.09m1.891-.651a.477.477 0 01-.069-.67.477.477 0 11.067.67m5.761-.289a.475.475 0 11.394.209.475.475 0 01-.394-.209M.156 13.119a.475.475 0 11.32.124.469.469 0 01-.32-.124m1.651.023a.474.474 0 01-.122-.662.476.476 0 11.392.746.466.466 0 01-.268-.084m33.4-.436a.475.475 0 11.523.422.421.421 0 01-.051 0 .474.474 0 01-.472-.424m-4.129.065a.477.477 0 11.383.192.477.477 0 01-.383-.192m7.693-.477a.475.475 0 11.542.4.459.459 0 01-.072.006.476.476 0 01-.47-.4m-1.693-.234a.475.475 0 11.674.012.47.47 0 01-.331.133.476.476 0 01-.342-.143m-33.865-.459a.476.476 0 11.59.325.458.458 0 01-.131.019.479.479 0 01-.459-.345m26.548-.381a.473.473 0 11.342.147.476.476 0 01-.342-.147m5.423-.453a.475.475 0 11.521.424.431.431 0 01-.05 0 .474.474 0 01-.472-.426m-28.02-.172a.477.477 0 11.381.189.476.476 0 01-.381-.189m22.8-.936a.475.475 0 11.337.141.468.468 0 01-.337-.141M8.87 9.378a.476.476 0 11.655.154.483.483 0 01-.251.07.475.475 0 01-.4-.225m18.167-.529a.476.476 0 11.293.1.475.475 0 01-.293-.1M12.7 7.678a.476.476 0 11.672.017.469.469 0 01-.327.129.476.476 0 01-.345-.146m12.731.015a.477.477 0 11.2.045.487.487 0 01-.2-.045m-11.256-1.26a.475.475 0 11.548.39.379.379 0 01-.08.008.475.475 0 01-.468-.4m4.741-.084a.476.476 0 11.634.223.465.465 0 01-.205.048.473.473 0 01-.428-.27m-1.412-.721a.475.475 0 11.67.07.487.487 0 01-.3.107.472.472 0 01-.369-.177m-1.975-.325a.476.476 0 11.578.345.5.5 0 01-.118.015.477.477 0 01-.46-.36m6.781.076a.478.478 0 11.4.209.475.475 0 01-.4-.209m-1.564-.034a.476.476 0 11.639-.205.479.479 0 01-.424.259.47.47 0 01-.217-.053"/><path class="ic" d="M7.289 33.303a2.466 2.466 0 01-1.451-4.46l12.17-8.841-12.17-8.843a2.466 2.466 0 012.9-3.989l14.913 10.837a2.465 2.465 0 010 3.989L8.737 32.831a2.459 2.459 0 01-1.448.471M27.9 40a2.466 2.466 0 01-2.343-1.7L22.13 27.755a2.465 2.465 0 014.689-1.523l3.427 10.545a2.47 2.47 0 01-2.345 3.227M40.639 22.465H29.552a2.465 2.465 0 110-4.93h11.087a2.465 2.465 0 110 4.93M24.474 15.476a2.5 2.5 0 01-.762-.12 2.465 2.465 0 01-1.584-3.107L25.555 1.7a2.465 2.465 0 014.686 1.527l-3.427 10.545a2.466 2.466 0 01-2.343 1.7M56.508 8.145v4.322h-2.006V4.754h1.913l3.174 4.342V4.754h2.006v7.713h-1.913zM65.74 11.96a1.919 1.919 0 01-1.53.682 1.6 1.6 0 01-1.757-1.623 1.644 1.644 0 011.84-1.613 2.192 2.192 0 011.3.362v-.207c0-.734-.4-.941-1.116-.941a6.6 6.6 0 00-1.272.176l-.021-1.468a7.972 7.972 0 011.716-.166c1.644 0 2.523.765 2.523 1.964v3.339H65.74zm0-5.4h-1.478l.775-1.52h2.13zm-.134 4.425a.6.6 0 00-.631-.61.618.618 0 00-.662.61.641.641 0 00.662.662.616.616 0 00.631-.662M70.237 12.464h-1.84V7.298h1.747v1.158c.155-.382.713-1.21 1.5-1.21h.186v2.018a1.071 1.071 0 00-.331-.041c-.775 0-1.261.434-1.261.755zM78.447 9.882a3.1 3.1 0 11-3.09-2.826 2.9 2.9 0 013.09 2.826m-4.28 0a1.195 1.195 0 102.388 0 1.195 1.195 0 10-2.388 0M83.309 11.691a2.272 2.272 0 01-1.913.941 2.512 2.512 0 01-2.419-2.709 2.582 2.582 0 012.419-2.791 2.3 2.3 0 011.789.827V4.403h1.84v8.061h-1.716zm-1.272-2.977a1.139 1.139 0 00-1.153 1.168 1.152 1.152 0 001.158 1.168 1.168 1.168 0 100-2.336M87.854 12.471h-1.84V7.297h1.737v.674a2.18 2.18 0 011.706-.8 1.792 1.792 0 011.83 1.913v3.387h-1.833V9.644c0-.61-.331-.848-.786-.848a.793.793 0 00-.817.755zM94.069 12.467h-1.82V7.298h1.82zm-.145-5.9h-1.479l.776-1.52h2.13zM56.218 22.269v2.864h-1.84v-7.371h1.716v.765a2.278 2.278 0 011.913-.931 2.519 2.519 0 012.419 2.709 2.588 2.588 0 01-2.419 2.791 2.3 2.3 0 01-1.789-.827m1.137-.755a1.142 1.142 0 001.168-1.168 1.154 1.154 0 00-1.168-1.168 1.168 1.168 0 100 2.336M61.218 14.867h1.819v8.064h-1.819zM67.022 22.424a1.919 1.919 0 01-1.53.682 1.6 1.6 0 01-1.757-1.623 1.644 1.644 0 011.84-1.613 2.192 2.192 0 011.3.362v-.207c0-.734-.4-.941-1.116-.941a6.6 6.6 0 00-1.272.176l-.021-1.468a7.973 7.973 0 011.716-.166c1.644 0 2.523.765 2.523 1.964v3.339h-1.683zm0-5.4h-1.478l.775-1.52h2.13zm-.134 4.425a.6.6 0 00-.631-.61.618.618 0 00-.662.61.641.641 0 00.662.662.616.616 0 00.631-.662M71.519 22.931h-1.84v-5.169h1.737v.674a2.18 2.18 0 011.706-.8 1.792 1.792 0 011.83 1.912v3.381h-1.83v-2.82c0-.61-.331-.848-.786-.848a.793.793 0 00-.817.755zM60.363 30.81a3.1 3.1 0 11-3.091-2.822 2.9 2.9 0 013.091 2.822m-4.28 0a1.195 1.195 0 102.388 0 1.195 1.195 0 10-2.388 0M64.727 33.561a2.278 2.278 0 01-1.913-.93v.765h-1.716v-8.064h1.84v3.56a2.3 2.3 0 011.789-.827 2.589 2.589 0 012.419 2.791 2.518 2.518 0 01-2.419 2.709m-.651-1.582a1.154 1.154 0 001.168-1.168 1.142 1.142 0 00-1.168-1.168 1.168 1.168 0 100 2.336M69.754 33.4h-1.84v-5.169h1.74v.672a2.181 2.181 0 011.706-.8 1.792 1.792 0 011.83 1.912V33.4h-1.83v-2.823c0-.61-.331-.847-.786-.847a.793.793 0 00-.817.755zM80.071 30.81a3.1 3.1 0 11-3.091-2.822 2.9 2.9 0 013.091 2.822m-4.28 0a1.195 1.195 0 102.388 0 1.195 1.195 0 10-2.388 0M84.307 33.395h-2.223l-2.006-5.169h2.047l1.086 3.287 1.168-3.287h1.913zM90.119 35.597h-1.9l.724-2.016-2.347-5.355h2.076l1.189 3.256 1.085-3.256h1.913z"/></g></symbol><symbol id="preloader" xml:space="preserve" viewBox="0 0 44 44" xmlns="http://www.w3.org/2000/svg"><style>.jst0{fill:none;stroke:#1d1d1b;stroke-width:2}</style><path class="jst0" d="M20.8 21.5h1.1v1.1h-1.1z"/></symbol><symbol viewBox="0 0 80.339 67.744" id="result" xmlns="http://www.w3.org/2000/svg"><defs><clipPath id="ka"><path fill="none" stroke="#000" d="M0 0h80.339v67.744H0z"/></clipPath></defs><g clip-path="url(#ka)" fill="none" stroke="#000" stroke-linecap="round" stroke-linejoin="round"><path d="M69.293 23.201v44.033H4.86a4.35 4.35 0 110-8.7h3.863V3.708H4.911a4.4 4.4 0 00-4.4 4.4v48.965M9.157 11.123h48.09M13.654 60.289h40.207M57.183 60.289h5.112"/><path d="M18.337 46.796l.124 13.493h18.95V46.604l-9.538-6.62z"/><path d="M24.54 50.868h6.668v9.42H24.54zM71.696 1.929L41.923 32.181l-1.654 8.155 8.4-1.467 29.8-30.279a4.748 4.748 0 00-6.768-6.661zM41.923 32.181l6.742 6.687M69.663 4.52l6.195 6.299M66.686 6.975l6.659 6.771M14.666 17.646V27.82M18.474 17.646v5.556"/></g></symbol></svg>